<?xml version="1.0" encoding="UTF-8" standalone="no"?>
<!DOCTYPE svg PUBLIC "-//W3C//DTD SVG 1.1//EN"
 "http://www.w3.org/Graphics/SVG/1.1/DTD/svg11.dtd">
<!-- Generated by graphviz version 2.38.0 (20140413.2041)
 -->
<!-- Title: %3 Pages: 1 -->
<svg width="535pt" height="629pt"
 viewBox="0.00 0.00 535.12 629.00" xmlns="http://www.w3.org/2000/svg" xmlns:xlink="http://www.w3.org/1999/xlink">
<g id="graph0" class="graph" transform="scale(1 1) rotate(0) translate(4 625)">
<title>%3</title>
<polygon fill="white" stroke="none" points="-4,4 -4,-625 531.123,-625 531.123,4 -4,4"/>
<!-- DependenciesandDependents -->
<g id="node1" class="node"><title>DependenciesandDependents</title>
<polygon fill="none" stroke="black" points="195.254,-584.5 195.254,-620.5 383.254,-620.5 383.254,-584.5 195.254,-584.5"/>
<text text-anchor="start" x="203.254" y="-598.8" font-family="Times New Roman,serif" font-size="14.00">Dependencies and Dependents</text>
</g>
<!-- Tiers -->
<g id="node2" class="node"><title>Tiers</title>
<polygon fill="none" stroke="black" points="262.254,-511.5 262.254,-547.5 316.254,-547.5 316.254,-511.5 262.254,-511.5"/>
<text text-anchor="middle" x="289.254" y="-525.8" font-family="Times New Roman,serif" font-size="14.00">Tiers</text>
</g>
<!-- DependenciesandDependents&#45;&gt;Tiers -->
<g id="edge1" class="edge"><title>DependenciesandDependents&#45;&gt;Tiers</title>
<path fill="none" stroke="black" d="M289.254,-584.313C289.254,-576.289 289.254,-566.547 289.254,-557.569"/>
<polygon fill="black" stroke="black" points="292.754,-557.529 289.254,-547.529 285.754,-557.529 292.754,-557.529"/>
</g>
<!-- Vias -->
<g id="node3" class="node"><title>Vias</title>
<polygon fill="none" stroke="black" points="223.254,-438.5 223.254,-474.5 277.254,-474.5 277.254,-438.5 223.254,-438.5"/>
<text text-anchor="middle" x="250.254" y="-452.8" font-family="Times New Roman,serif" font-size="14.00">Vias</text>
</g>
<!-- Tiers&#45;&gt;Vias -->
<g id="edge2" class="edge"><title>Tiers&#45;&gt;Vias</title>
<path fill="none" stroke="black" d="M279.813,-511.313C275.214,-502.941 269.588,-492.697 264.482,-483.403"/>
<polygon fill="black" stroke="black" points="267.49,-481.609 259.608,-474.529 261.355,-484.979 267.49,-481.609"/>
</g>
<!-- Conflicts -->
<g id="node4" class="node"><title>Conflicts</title>
<polygon fill="none" stroke="black" points="295.254,-438.5 295.254,-474.5 363.254,-474.5 363.254,-438.5 295.254,-438.5"/>
<text text-anchor="middle" x="329.254" y="-452.8" font-family="Times New Roman,serif" font-size="14.00">Conflicts</text>
</g>
<!-- Tiers&#45;&gt;Conflicts -->
<g id="edge3" class="edge"><title>Tiers&#45;&gt;Conflicts</title>
<path fill="none" stroke="black" d="M298.937,-511.313C303.654,-502.941 309.425,-492.697 314.661,-483.403"/>
<polygon fill="black" stroke="black" points="317.801,-484.959 319.66,-474.529 311.702,-481.523 317.801,-484.959"/>
</g>
<!-- SortOrder -->
<g id="node5" class="node"><title>SortOrder</title>
<polygon fill="none" stroke="black" points="250.754,-365.5 250.754,-401.5 327.754,-401.5 327.754,-365.5 250.754,-365.5"/>
<text text-anchor="start" x="258.754" y="-379.8" font-family="Times New Roman,serif" font-size="14.00">Sort Order</text>
</g>
<!-- Vias&#45;&gt;SortOrder -->
<g id="edge4" class="edge"><title>Vias&#45;&gt;SortOrder</title>
<path fill="none" stroke="black" d="M259.695,-438.313C264.294,-429.941 269.92,-419.697 275.026,-410.403"/>
<polygon fill="black" stroke="black" points="278.153,-411.979 279.9,-401.529 272.018,-408.609 278.153,-411.979"/>
</g>
<!-- Conflicts&#45;&gt;SortOrder -->
<g id="edge5" class="edge"><title>Conflicts&#45;&gt;SortOrder</title>
<path fill="none" stroke="black" d="M319.571,-438.313C314.854,-429.941 309.083,-419.697 303.847,-410.403"/>
<polygon fill="black" stroke="black" points="306.806,-408.523 298.848,-401.529 300.707,-411.959 306.806,-408.523"/>
</g>
<!-- DragandDrop -->
<g id="node6" class="node"><title>DragandDrop</title>
<polygon fill="none" stroke="black" points="138.754,-219.5 138.754,-255.5 239.754,-255.5 239.754,-219.5 138.754,-219.5"/>
<text text-anchor="start" x="146.754" y="-233.8" font-family="Times New Roman,serif" font-size="14.00">Drag and Drop</text>
</g>
<!-- SortOrder&#45;&gt;DragandDrop -->
<g id="edge6" class="edge"><title>SortOrder&#45;&gt;DragandDrop</title>
<path fill="none" stroke="black" d="M277.39,-365.416C259.948,-340.3 227.264,-293.234 206.972,-264.014"/>
<polygon fill="black" stroke="black" points="209.681,-261.779 201.103,-255.562 203.932,-265.772 209.681,-261.779"/>
</g>
<!-- Renderer -->
<g id="node7" class="node"><title>Renderer</title>
<polygon fill="none" stroke="black" points="321.254,-292.5 321.254,-328.5 389.254,-328.5 389.254,-292.5 321.254,-292.5"/>
<text text-anchor="middle" x="355.254" y="-306.8" font-family="Times New Roman,serif" font-size="14.00">Renderer</text>
</g>
<!-- SortOrder&#45;&gt;Renderer -->
<g id="edge7" class="edge"><title>SortOrder&#45;&gt;Renderer</title>
<path fill="none" stroke="black" d="M305.231,-365.313C313.419,-356.505 323.532,-345.625 332.518,-335.958"/>
<polygon fill="black" stroke="black" points="335.179,-338.236 339.424,-328.529 330.052,-333.47 335.179,-338.236"/>
</g>
<!-- Website -->
<g id="node17" class="node"><title>Website</title>
<polygon fill="none" stroke="black" points="274.254,-0.5 274.254,-36.5 336.254,-36.5 336.254,-0.5 274.254,-0.5"/>
<text text-anchor="middle" x="305.254" y="-14.8" font-family="Times New Roman,serif" font-size="14.00">Website</text>
</g>
<!-- DragandDrop&#45;&gt;Website -->
<g id="edge8" class="edge"><title>DragandDrop&#45;&gt;Website</title>
<path fill="none" stroke="black" d="M138.465,-220.548C115.544,-211.782 89.0174,-199.327 68.254,-183 25.1303,-149.089 -22.8814,-115.132 12.254,-73 43.8192,-35.1493 190.836,-24.0038 263.865,-20.7797"/>
<polygon fill="black" stroke="black" points="264.233,-24.2676 274.081,-20.3593 263.945,-17.2736 264.233,-24.2676"/>
</g>
<!-- Renderer&#45;&gt;DragandDrop -->
<g id="edge9" class="edge"><title>Renderer&#45;&gt;DragandDrop</title>
<path fill="none" stroke="black" d="M320.859,-294.789C297.092,-284.624 265.116,-270.947 238.634,-259.621"/>
<polygon fill="black" stroke="black" points="239.723,-256.279 229.152,-255.565 236.97,-262.715 239.723,-256.279"/>
</g>
<!-- UI -->
<g id="node8" class="node"><title>UI</title>
<polygon fill="none" stroke="black" points="258.254,-219.5 258.254,-255.5 312.254,-255.5 312.254,-219.5 258.254,-219.5"/>
<text text-anchor="middle" x="285.254" y="-233.8" font-family="Times New Roman,serif" font-size="14.00">UI</text>
</g>
<!-- Renderer&#45;&gt;UI -->
<g id="edge10" class="edge"><title>Renderer&#45;&gt;UI</title>
<path fill="none" stroke="black" d="M338.309,-292.313C329.539,-283.417 318.686,-272.409 309.085,-262.672"/>
<polygon fill="black" stroke="black" points="311.556,-260.193 302.043,-255.529 306.571,-265.107 311.556,-260.193"/>
</g>
<!-- Export -->
<g id="node13" class="node"><title>Export</title>
<polygon fill="none" stroke="black" points="439.754,-146.5 439.754,-182.5 494.754,-182.5 494.754,-146.5 439.754,-146.5"/>
<text text-anchor="middle" x="467.254" y="-160.8" font-family="Times New Roman,serif" font-size="14.00">Export</text>
</g>
<!-- Renderer&#45;&gt;Export -->
<g id="edge11" class="edge"><title>Renderer&#45;&gt;Export</title>
<path fill="none" stroke="black" d="M368.542,-292.416C388.16,-267.192 424.999,-219.828 447.703,-190.637"/>
<polygon fill="black" stroke="black" points="450.607,-192.604 453.984,-182.562 445.081,-188.307 450.607,-192.604"/>
</g>
<!-- TaskLinks -->
<g id="node16" class="node"><title>TaskLinks</title>
<polygon fill="none" stroke="black" points="436.754,-219.5 436.754,-255.5 515.754,-255.5 515.754,-219.5 436.754,-219.5"/>
<text text-anchor="start" x="444.754" y="-233.8" font-family="Times New Roman,serif" font-size="14.00">Task Links</text>
</g>
<!-- Renderer&#45;&gt;TaskLinks -->
<g id="edge12" class="edge"><title>Renderer&#45;&gt;TaskLinks</title>
<path fill="none" stroke="black" d="M384.237,-292.494C400.431,-282.991 420.805,-271.036 438.263,-260.792"/>
<polygon fill="black" stroke="black" points="440.235,-263.693 447.089,-255.614 436.692,-257.656 440.235,-263.693"/>
</g>
<!-- Renderer&#45;&gt;Website -->
<g id="edge13" class="edge"><title>Renderer&#45;&gt;Website</title>
<path fill="none" stroke="black" d="M389.543,-309.718C429.338,-307.894 493.433,-298.085 524.254,-256 530.061,-248.07 525.496,-178.262 520.254,-146 514.859,-112.795 524.037,-96.7914 500.254,-73 459.47,-32.2018 390.698,-21.7364 346.673,-19.4729"/>
<polygon fill="black" stroke="black" points="346.719,-15.9721 336.589,-19.0752 346.443,-22.9666 346.719,-15.9721"/>
</g>
<!-- NewTask -->
<g id="node9" class="node"><title>NewTask</title>
<polygon fill="none" stroke="black" points="21.254,-73.5 21.254,-109.5 95.254,-109.5 95.254,-73.5 21.254,-73.5"/>
<text text-anchor="start" x="29.254" y="-87.8" font-family="Times New Roman,serif" font-size="14.00">New Task</text>
</g>
<!-- UI&#45;&gt;NewTask -->
<g id="edge14" class="edge"><title>UI&#45;&gt;NewTask</title>
<path fill="none" stroke="black" d="M258.042,-222.854C254.784,-221.453 251.472,-220.131 248.254,-219 183.164,-196.128 150.068,-227.392 97.254,-183 78.1829,-166.97 68.1892,-139.895 63.1166,-119.526"/>
<polygon fill="black" stroke="black" points="66.4902,-118.574 60.8906,-109.58 59.6592,-120.103 66.4902,-118.574"/>
</g>
<!-- ConnectionDrawer -->
<g id="node10" class="node"><title>ConnectionDrawer</title>
<polygon fill="none" stroke="black" points="113.754,-73.5 113.754,-109.5 238.754,-109.5 238.754,-73.5 113.754,-73.5"/>
<text text-anchor="start" x="121.754" y="-87.8" font-family="Times New Roman,serif" font-size="14.00">Connection Drawer</text>
</g>
<!-- UI&#45;&gt;ConnectionDrawer -->
<g id="edge15" class="edge"><title>UI&#45;&gt;ConnectionDrawer</title>
<path fill="none" stroke="black" d="M258.024,-222.905C254.769,-221.494 251.463,-220.156 248.254,-219 187.407,-197.073 146.929,-234.078 107.254,-183 97.1663,-170.013 100.018,-160.767 107.254,-146 113.26,-133.743 123.578,-123.489 134.431,-115.346"/>
<polygon fill="black" stroke="black" points="136.57,-118.122 142.773,-109.532 132.567,-112.379 136.57,-118.122"/>
</g>
<!-- StatusModifier -->
<g id="node11" class="node"><title>StatusModifier</title>
<polygon fill="none" stroke="black" points="116.754,-146.5 116.754,-182.5 219.754,-182.5 219.754,-146.5 116.754,-146.5"/>
<text text-anchor="start" x="124.754" y="-160.8" font-family="Times New Roman,serif" font-size="14.00">Status Modifier</text>
</g>
<!-- UI&#45;&gt;StatusModifier -->
<g id="edge16" class="edge"><title>UI&#45;&gt;StatusModifier</title>
<path fill="none" stroke="black" d="M258.118,-220.033C242.367,-210.474 222.309,-198.303 205.141,-187.884"/>
<polygon fill="black" stroke="black" points="206.829,-184.815 196.465,-182.619 203.198,-190.799 206.829,-184.815"/>
</g>
<!-- RemoveTask -->
<g id="node12" class="node"><title>RemoveTask</title>
<polygon fill="none" stroke="black" points="237.754,-146.5 237.754,-182.5 332.754,-182.5 332.754,-146.5 237.754,-146.5"/>
<text text-anchor="start" x="245.754" y="-160.8" font-family="Times New Roman,serif" font-size="14.00">Remove Task</text>
</g>
<!-- UI&#45;&gt;RemoveTask -->
<g id="edge17" class="edge"><title>UI&#45;&gt;RemoveTask</title>
<path fill="none" stroke="black" d="M285.254,-219.313C285.254,-211.289 285.254,-201.547 285.254,-192.569"/>
<polygon fill="black" stroke="black" points="288.754,-192.529 285.254,-182.529 281.754,-192.529 288.754,-192.529"/>
</g>
<!-- Grouping -->
<g id="node14" class="node"><title>Grouping</title>
<polygon fill="none" stroke="black" points="351.254,-146.5 351.254,-182.5 421.254,-182.5 421.254,-146.5 351.254,-146.5"/>
<text text-anchor="middle" x="386.254" y="-160.8" font-family="Times New Roman,serif" font-size="14.00">Grouping</text>
</g>
<!-- UI&#45;&gt;Grouping -->
<g id="edge18" class="edge"><title>UI&#45;&gt;Grouping</title>
<path fill="none" stroke="black" d="M309.446,-219.494C322.591,-210.253 339.036,-198.692 353.334,-188.642"/>
<polygon fill="black" stroke="black" points="355.741,-191.228 361.909,-182.614 351.716,-185.501 355.741,-191.228"/>
</g>
<!-- NewTask&#45;&gt;Website -->
<g id="edge19" class="edge"><title>NewTask&#45;&gt;Website</title>
<path fill="none" stroke="black" d="M95.2943,-76.0318C98.3124,-74.9681 101.326,-73.9437 104.254,-73 158.909,-55.3819 223.223,-39.0079 264.105,-29.1307"/>
<polygon fill="black" stroke="black" points="265.067,-32.4994 273.974,-26.7627 263.433,-25.6926 265.067,-32.4994"/>
</g>
<!-- ConnectionDrawer&#45;&gt;Website -->
<g id="edge20" class="edge"><title>ConnectionDrawer&#45;&gt;Website</title>
<path fill="none" stroke="black" d="M207.153,-73.4937C224.576,-63.9042 246.538,-51.8167 265.262,-41.5109"/>
<polygon fill="black" stroke="black" points="267.087,-44.5017 274.16,-36.6136 263.712,-38.3692 267.087,-44.5017"/>
</g>
<!-- StatusModifier&#45;&gt;Website -->
<g id="edge21" class="edge"><title>StatusModifier&#45;&gt;Website</title>
<path fill="none" stroke="black" d="M199.704,-146.296C215.152,-136.877 233.378,-124.232 247.254,-110 265.866,-90.9109 281.767,-64.9431 292.188,-45.7189"/>
<polygon fill="black" stroke="black" points="295.418,-47.0964 296.986,-36.6183 289.226,-43.8314 295.418,-47.0964"/>
</g>
<!-- RemoveTask&#45;&gt;Website -->
<g id="edge22" class="edge"><title>RemoveTask&#45;&gt;Website</title>
<path fill="none" stroke="black" d="M287.627,-146.416C291.055,-121.733 297.428,-75.8507 301.498,-46.5406"/>
<polygon fill="black" stroke="black" points="304.975,-46.9484 302.884,-36.5619 298.042,-45.9853 304.975,-46.9484"/>
</g>
<!-- Export&#45;&gt;Website -->
<g id="edge23" class="edge"><title>Export&#45;&gt;Website</title>
<path fill="none" stroke="black" d="M468.289,-146.378C468.553,-126.427 465.937,-93.5781 448.254,-73 422.689,-43.2489 378.896,-30.0164 346.491,-24.1465"/>
<polygon fill="black" stroke="black" points="346.844,-20.6575 336.408,-22.4878 345.707,-27.5647 346.844,-20.6575"/>
</g>
<!-- GroupCollapse -->
<g id="node15" class="node"><title>GroupCollapse</title>
<polygon fill="none" stroke="black" points="333.254,-73.5 333.254,-109.5 439.254,-109.5 439.254,-73.5 333.254,-73.5"/>
<text text-anchor="start" x="341.254" y="-87.8" font-family="Times New Roman,serif" font-size="14.00">Group Collapse</text>
</g>
<!-- Grouping&#45;&gt;GroupCollapse -->
<g id="edge24" class="edge"><title>Grouping&#45;&gt;GroupCollapse</title>
<path fill="none" stroke="black" d="M386.254,-146.313C386.254,-138.289 386.254,-128.547 386.254,-119.569"/>
<polygon fill="black" stroke="black" points="389.754,-119.529 386.254,-109.529 382.754,-119.529 389.754,-119.529"/>
</g>
<!-- GroupCollapse&#45;&gt;Website -->
<g id="edge25" class="edge"><title>GroupCollapse&#45;&gt;Website</title>
<path fill="none" stroke="black" d="M366.646,-73.3129C356.398,-64.3302 343.693,-53.1933 332.504,-43.3856"/>
<polygon fill="black" stroke="black" points="334.508,-40.4885 324.681,-36.5288 329.894,-45.7525 334.508,-40.4885"/>
</g>
<!-- TaskLinks&#45;&gt;Website -->
<g id="edge26" class="edge"><title>TaskLinks&#45;&gt;Website</title>
<path fill="none" stroke="black" d="M487.441,-219.466C493.42,-209.33 500.17,-195.955 503.254,-183 515.044,-133.468 509.034,-107.133 471.254,-73 436.593,-41.685 383.423,-28.6835 346.64,-23.2954"/>
<polygon fill="black" stroke="black" points="346.634,-19.7638 336.259,-21.9121 345.709,-26.7025 346.634,-19.7638"/>
</g>
</g>
</svg>
