<?xml version="1.0" encoding="UTF-8" standalone="no"?>
<!DOCTYPE svg PUBLIC "-//W3C//DTD SVG 1.1//EN"
 "http://www.w3.org/Graphics/SVG/1.1/DTD/svg11.dtd">
<!-- Generated by graphviz version 2.38.0 (20140413.2041)
 -->
<!-- Title: %3 Pages: 1 -->
<svg width="219pt" height="264pt"
 viewBox="0.00 0.00 219.00 264.00" xmlns="http://www.w3.org/2000/svg" xmlns:xlink="http://www.w3.org/1999/xlink">
<g id="graph0" class="graph" transform="scale(1 1) rotate(0) translate(4 260)">
<title>%3</title>
<polygon fill="white" stroke="none" points="-4,4 -4,-260 215,-260 215,4 -4,4"/>
<!-- a -->
<g id="node1" class="node"><title>a</title>
<polygon fill="none" stroke="gray" points="60.5,-219.5 60.5,-255.5 142.5,-255.5 142.5,-219.5 60.5,-219.5"/>
<text text-anchor="start" x="68.5" y="-241.3" font-family="Times New Roman,serif" font-size="14.00" fill="gray">Brainstorm </text>
<text text-anchor="start" x="72" y="-227.3" font-family="Times New Roman,serif" font-size="14.00" fill="gray"> </text>
<text text-anchor="start" x="76" y="-227.3" font-family="Times New Roman,serif" font-style="italic" font-size="14.00" fill="gray">Complete</text>
</g>
<!-- b -->
<g id="node2" class="node"><title>b</title>
<polygon fill="none" stroke="gray" points="0,-146.5 0,-182.5 107,-182.5 107,-146.5 0,-146.5"/>
<text text-anchor="start" x="8" y="-168.3" font-family="Times New Roman,serif" font-size="14.00" fill="gray">Specify Format </text>
<text text-anchor="start" x="24" y="-154.3" font-family="Times New Roman,serif" font-size="14.00" fill="gray"> </text>
<text text-anchor="start" x="28" y="-154.3" font-family="Times New Roman,serif" font-style="italic" font-size="14.00" fill="gray">Complete</text>
</g>
<!-- a&#45;&gt;b -->
<g id="edge1" class="edge"><title>a&#45;&gt;b</title>
<path fill="none" stroke="black" d="M89.8805,-219.313C84.1025,-210.766 77.0061,-200.269 70.6197,-190.823"/>
<polygon fill="black" stroke="black" points="73.5128,-188.853 65.0125,-182.529 67.7137,-192.774 73.5128,-188.853"/>
</g>
<!-- c -->
<g id="node3" class="node"><title>c</title>
<polygon fill="none" stroke="black" points="102,-73.5 102,-109.5 211,-109.5 211,-73.5 102,-73.5"/>
<text text-anchor="start" x="110" y="-95.3" font-family="Times New Roman,serif" font-size="14.00">DOT Generator </text>
<text text-anchor="start" x="121" y="-81.3" font-family="Times New Roman,serif" font-size="14.00"> </text>
<text text-anchor="start" x="125" y="-81.3" font-family="Times New Roman,serif" font-style="italic" font-size="14.00">In Progress</text>
</g>
<!-- a&#45;&gt;c -->
<g id="edge2" class="edge"><title>a&#45;&gt;c</title>
<path fill="none" stroke="black" d="M108.025,-219.416C117.494,-194.625 135.131,-148.448 146.319,-119.156"/>
<polygon fill="black" stroke="black" points="149.685,-120.153 149.983,-109.562 143.146,-117.655 149.685,-120.153"/>
</g>
<!-- d -->
<g id="node4" class="node"><title>d</title>
<polygon fill="none" stroke="gray" points="9,-73.5 9,-109.5 84,-109.5 84,-73.5 9,-73.5"/>
<text text-anchor="start" x="26.5" y="-95.3" font-family="Times New Roman,serif" font-size="14.00" fill="gray">Parser </text>
<text text-anchor="start" x="17" y="-81.3" font-family="Times New Roman,serif" font-size="14.00" fill="gray"> </text>
<text text-anchor="start" x="21" y="-81.3" font-family="Times New Roman,serif" font-style="italic" font-size="14.00" fill="gray">Complete</text>
</g>
<!-- b&#45;&gt;d -->
<g id="edge3" class="edge"><title>b&#45;&gt;d</title>
<path fill="none" stroke="black" d="M51.8055,-146.313C51.0145,-138.289 50.054,-128.547 49.1688,-119.569"/>
<polygon fill="black" stroke="black" points="52.6433,-119.137 48.1789,-109.529 45.677,-119.824 52.6433,-119.137"/>
</g>
<!-- e -->
<g id="node5" class="node"><title>e</title>
<polygon fill="none" stroke="black" points="24,-0.5 24,-36.5 179,-36.5 179,-0.5 24,-0.5"/>
<text text-anchor="start" x="32" y="-14.8" font-family="Times New Roman,serif" font-size="14.00">Command Line Interface</text>
</g>
<!-- c&#45;&gt;e -->
<g id="edge5" class="edge"><title>c&#45;&gt;e</title>
<path fill="none" stroke="black" d="M143.186,-73.3129C136.498,-64.679 128.268,-54.0551 120.893,-44.5341"/>
<polygon fill="black" stroke="black" points="123.582,-42.291 114.691,-36.5288 118.048,-46.5778 123.582,-42.291"/>
</g>
<!-- d&#45;&gt;e -->
<g id="edge4" class="edge"><title>d&#45;&gt;e</title>
<path fill="none" stroke="black" d="M59.814,-73.3129C66.5022,-64.679 74.732,-54.0551 82.1074,-44.5341"/>
<polygon fill="black" stroke="black" points="84.9516,-46.5778 88.3086,-36.5288 79.4177,-42.291 84.9516,-46.5778"/>
</g>
</g>
</svg>
