<?xml version="1.0" encoding="UTF-8" standalone="no"?>
<!DOCTYPE svg PUBLIC "-//W3C//DTD SVG 1.1//EN"
 "http://www.w3.org/Graphics/SVG/1.1/DTD/svg11.dtd">
<!-- Generated by graphviz version 2.38.0 (20140413.2041)
 -->
<!-- Title: %3 Pages: 1 -->
<svg width="414pt" height="118pt"
 viewBox="0.00 0.00 414.00 118.00" xmlns="http://www.w3.org/2000/svg" xmlns:xlink="http://www.w3.org/1999/xlink">
<g id="graph0" class="graph" transform="scale(1 1) rotate(0) translate(4 114)">
<title>%3</title>
<polygon fill="white" stroke="none" points="-4,4 -4,-114 410,-114 410,4 -4,4"/>
<!-- CommandArguments -->
<g id="node1" class="node"><title>CommandArguments</title>
<polygon fill="none" stroke="black" points="0,-73.5 0,-109.5 140,-109.5 140,-73.5 0,-73.5"/>
<text text-anchor="start" x="8" y="-87.8" font-family="Times New Roman,serif" font-size="14.00">Command Arguments</text>
</g>
<!-- ProfileReferences -->
<g id="node2" class="node"><title>ProfileReferences</title>
<polygon fill="none" stroke="black" points="158.5,-73.5 158.5,-109.5 277.5,-109.5 277.5,-73.5 158.5,-73.5"/>
<text text-anchor="start" x="166.5" y="-87.8" font-family="Times New Roman,serif" font-size="14.00">Profile References</text>
</g>
<!-- ProjectJsonSupport -->
<g id="node3" class="node"><title>ProjectJsonSupport</title>
<polygon fill="none" stroke="black" points="152.5,-0.5 152.5,-36.5 283.5,-36.5 283.5,-0.5 152.5,-0.5"/>
<text text-anchor="start" x="160.5" y="-14.8" font-family="Times New Roman,serif" font-size="14.00">ProjectJson Support</text>
</g>
<!-- ProfileReferences&#45;&gt;ProjectJsonSupport -->
<g id="edge1" class="edge"><title>ProfileReferences&#45;&gt;ProjectJsonSupport</title>
<path fill="none" stroke="black" d="M218,-73.3129C218,-65.2895 218,-55.5475 218,-46.5691"/>
<polygon fill="black" stroke="black" points="221.5,-46.5288 218,-36.5288 214.5,-46.5289 221.5,-46.5288"/>
</g>
<!-- ScriptExecution -->
<g id="node4" class="node"><title>ScriptExecution</title>
<polygon fill="none" stroke="black" points="296,-73.5 296,-109.5 406,-109.5 406,-73.5 296,-73.5"/>
<text text-anchor="start" x="304" y="-87.8" font-family="Times New Roman,serif" font-size="14.00">Script Execution</text>
</g>
</g>
</svg>
