<?xml version="1.0" encoding="UTF-8" standalone="no"?>
<!DOCTYPE svg PUBLIC "-//W3C//DTD SVG 1.1//EN"
 "http://www.w3.org/Graphics/SVG/1.1/DTD/svg11.dtd">
<!-- Generated by graphviz version 2.38.0 (20140413.2041)
 -->
<!-- Title: %3 Pages: 1 -->
<svg width="621pt" height="483pt"
 viewBox="0.00 0.00 621.00 483.00" xmlns="http://www.w3.org/2000/svg" xmlns:xlink="http://www.w3.org/1999/xlink">
<g id="graph0" class="graph" transform="scale(1 1) rotate(0) translate(4 479)">
<title>%3</title>
<polygon fill="white" stroke="none" points="-4,4 -4,-479 617,-479 617,4 -4,4"/>
<!-- Renderer -->
<g id="node1" class="node"><title>Renderer</title>
<polygon fill="none" stroke="gray" points="158,-438.5 158,-474.5 233,-474.5 233,-438.5 158,-438.5"/>
<text text-anchor="start" x="168" y="-460.3" font-family="Times New Roman,serif" font-size="14.00" fill="gray">Renderer </text>
<text text-anchor="start" x="166" y="-446.3" font-family="Times New Roman,serif" font-size="14.00" fill="gray"> </text>
<text text-anchor="start" x="170" y="-446.3" font-family="Times New Roman,serif" font-style="italic" font-size="14.00" fill="gray">Complete</text>
</g>
<!-- Grid -->
<g id="node2" class="node"><title>Grid</title>
<polygon fill="none" stroke="gray" points="205,-365.5 205,-401.5 280,-401.5 280,-365.5 205,-365.5"/>
<text text-anchor="start" x="227.5" y="-387.3" font-family="Times New Roman,serif" font-size="14.00" fill="gray">Grid </text>
<text text-anchor="start" x="213" y="-373.3" font-family="Times New Roman,serif" font-size="14.00" fill="gray"> </text>
<text text-anchor="start" x="217" y="-373.3" font-family="Times New Roman,serif" font-style="italic" font-size="14.00" fill="gray">Complete</text>
</g>
<!-- Renderer&#45;&gt;Grid -->
<g id="edge1" class="edge"><title>Renderer&#45;&gt;Grid</title>
<path fill="none" stroke="black" d="M206.877,-438.313C212.477,-429.853 219.342,-419.484 225.545,-410.112"/>
<polygon fill="black" stroke="black" points="228.626,-411.799 231.227,-401.529 222.789,-407.935 228.626,-411.799"/>
</g>
<!-- Touch -->
<g id="node3" class="node"><title>Touch</title>
<polygon fill="none" stroke="gray" points="112,-365.5 112,-401.5 187,-401.5 187,-365.5 112,-365.5"/>
<text text-anchor="start" x="129" y="-387.3" font-family="Times New Roman,serif" font-size="14.00" fill="gray">Touch </text>
<text text-anchor="start" x="120" y="-373.3" font-family="Times New Roman,serif" font-size="14.00" fill="gray"> </text>
<text text-anchor="start" x="124" y="-373.3" font-family="Times New Roman,serif" font-style="italic" font-size="14.00" fill="gray">Complete</text>
</g>
<!-- Renderer&#45;&gt;Touch -->
<g id="edge2" class="edge"><title>Renderer&#45;&gt;Touch</title>
<path fill="none" stroke="black" d="M184.365,-438.313C178.884,-429.853 172.165,-419.484 166.094,-410.112"/>
<polygon fill="black" stroke="black" points="168.908,-408.018 160.533,-401.529 163.033,-411.824 168.908,-408.018"/>
</g>
<!-- Advancing -->
<g id="node4" class="node"><title>Advancing</title>
<polygon fill="none" stroke="gray" points="231.5,-292.5 231.5,-328.5 311.5,-328.5 311.5,-292.5 231.5,-292.5"/>
<text text-anchor="start" x="239.5" y="-314.3" font-family="Times New Roman,serif" font-size="14.00" fill="gray">Advancing </text>
<text text-anchor="start" x="242" y="-300.3" font-family="Times New Roman,serif" font-size="14.00" fill="gray"> </text>
<text text-anchor="start" x="246" y="-300.3" font-family="Times New Roman,serif" font-style="italic" font-size="14.00" fill="gray">Complete</text>
</g>
<!-- Grid&#45;&gt;Advancing -->
<g id="edge3" class="edge"><title>Grid&#45;&gt;Advancing</title>
<path fill="none" stroke="black" d="M249.52,-365.313C252.868,-357.115 256.95,-347.123 260.682,-337.985"/>
<polygon fill="black" stroke="black" points="264.003,-339.11 264.545,-328.529 257.523,-336.463 264.003,-339.11"/>
</g>
<!-- BlockDragging -->
<g id="node6" class="node"><title>BlockDragging</title>
<polygon fill="none" stroke="gray" points="68,-292.5 68,-328.5 175,-328.5 175,-292.5 68,-292.5"/>
<text text-anchor="start" x="76" y="-314.3" font-family="Times New Roman,serif" font-size="14.00" fill="gray">Block Dragging </text>
<text text-anchor="start" x="92" y="-300.3" font-family="Times New Roman,serif" font-size="14.00" fill="gray"> </text>
<text text-anchor="start" x="96" y="-300.3" font-family="Times New Roman,serif" font-style="italic" font-size="14.00" fill="gray">Complete</text>
</g>
<!-- Grid&#45;&gt;BlockDragging -->
<g id="edge4" class="edge"><title>Grid&#45;&gt;BlockDragging</title>
<path fill="none" stroke="black" d="M213.517,-365.494C197.323,-355.991 176.949,-344.036 159.491,-333.792"/>
<polygon fill="black" stroke="black" points="161.062,-330.656 150.665,-328.614 157.519,-336.693 161.062,-330.656"/>
</g>
<!-- Touch&#45;&gt;BlockDragging -->
<g id="edge5" class="edge"><title>Touch&#45;&gt;BlockDragging</title>
<path fill="none" stroke="black" d="M142.722,-365.313C139.489,-357.115 135.549,-347.123 131.945,-337.985"/>
<polygon fill="black" stroke="black" points="135.14,-336.548 128.216,-328.529 128.628,-339.116 135.14,-336.548"/>
</g>
<!-- IntentionalAdvance -->
<g id="node9" class="node"><title>IntentionalAdvance</title>
<polygon fill="none" stroke="gray" points="172,-219.5 172,-255.5 303,-255.5 303,-219.5 172,-219.5"/>
<text text-anchor="start" x="180" y="-241.3" font-family="Times New Roman,serif" font-size="14.00" fill="gray">Intentional Advance </text>
<text text-anchor="start" x="208" y="-227.3" font-family="Times New Roman,serif" font-size="14.00" fill="gray"> </text>
<text text-anchor="start" x="212" y="-227.3" font-family="Times New Roman,serif" font-style="italic" font-size="14.00" fill="gray">Complete</text>
</g>
<!-- Touch&#45;&gt;IntentionalAdvance -->
<g id="edge6" class="edge"><title>Touch&#45;&gt;IntentionalAdvance</title>
<path fill="none" stroke="black" d="M160.649,-365.23C167.347,-354.787 175.997,-341.181 183.5,-329 196.819,-307.377 211.57,-282.596 222.284,-264.439"/>
<polygon fill="black" stroke="black" points="225.431,-265.992 227.49,-255.6 219.4,-262.44 225.431,-265.992"/>
</g>
<!-- NewRows -->
<g id="node5" class="node"><title>NewRows</title>
<polygon fill="none" stroke="gray" points="321,-219.5 321,-255.5 404,-255.5 404,-219.5 321,-219.5"/>
<text text-anchor="start" x="329" y="-241.3" font-family="Times New Roman,serif" font-size="14.00" fill="gray">New Rows </text>
<text text-anchor="start" x="333" y="-227.3" font-family="Times New Roman,serif" font-size="14.00" fill="gray"> </text>
<text text-anchor="start" x="337" y="-227.3" font-family="Times New Roman,serif" font-style="italic" font-size="14.00" fill="gray">Complete</text>
</g>
<!-- Advancing&#45;&gt;NewRows -->
<g id="edge7" class="edge"><title>Advancing&#45;&gt;NewRows</title>
<path fill="none" stroke="black" d="M293.529,-292.313C305.265,-283.156 319.871,-271.76 332.616,-261.816"/>
<polygon fill="black" stroke="black" points="334.943,-264.44 340.674,-255.529 330.637,-258.921 334.943,-264.44"/>
</g>
<!-- Advancing&#45;&gt;IntentionalAdvance -->
<g id="edge8" class="edge"><title>Advancing&#45;&gt;IntentionalAdvance</title>
<path fill="none" stroke="black" d="M263.27,-292.313C259.302,-284.028 254.457,-273.91 250.043,-264.693"/>
<polygon fill="black" stroke="black" points="253.13,-263.036 245.655,-255.529 246.817,-266.06 253.13,-263.036"/>
</g>
<!-- Lose -->
<g id="node13" class="node"><title>Lose</title>
<polygon fill="none" stroke="black" points="328.5,-146.5 328.5,-182.5 382.5,-182.5 382.5,-146.5 328.5,-146.5"/>
<text text-anchor="middle" x="355.5" y="-160.8" font-family="Times New Roman,serif" font-size="14.00">Lose</text>
</g>
<!-- NewRows&#45;&gt;Lose -->
<g id="edge9" class="edge"><title>NewRows&#45;&gt;Lose</title>
<path fill="none" stroke="black" d="M360.805,-219.313C360.014,-211.289 359.054,-201.547 358.169,-192.569"/>
<polygon fill="black" stroke="black" points="361.643,-192.137 357.179,-182.529 354.677,-192.824 361.643,-192.137"/>
</g>
<!-- Matches -->
<g id="node7" class="node"><title>Matches</title>
<polygon fill="none" stroke="black" points="89.5,-219.5 89.5,-255.5 153.5,-255.5 153.5,-219.5 89.5,-219.5"/>
<text text-anchor="middle" x="121.5" y="-233.8" font-family="Times New Roman,serif" font-size="14.00">Matches</text>
</g>
<!-- BlockDragging&#45;&gt;Matches -->
<g id="edge10" class="edge"><title>BlockDragging&#45;&gt;Matches</title>
<path fill="none" stroke="black" d="M121.5,-292.313C121.5,-284.289 121.5,-274.547 121.5,-265.569"/>
<polygon fill="black" stroke="black" points="125,-265.529 121.5,-255.529 118,-265.529 125,-265.529"/>
</g>
<!-- Falling -->
<g id="node8" class="node"><title>Falling</title>
<polygon fill="none" stroke="gray" points="0,-146.5 0,-182.5 75,-182.5 75,-146.5 0,-146.5"/>
<text text-anchor="start" x="17" y="-168.3" font-family="Times New Roman,serif" font-size="14.00" fill="gray">Falling </text>
<text text-anchor="start" x="8" y="-154.3" font-family="Times New Roman,serif" font-size="14.00" fill="gray"> </text>
<text text-anchor="start" x="12" y="-154.3" font-family="Times New Roman,serif" font-style="italic" font-size="14.00" fill="gray">Complete</text>
</g>
<!-- BlockDragging&#45;&gt;Falling -->
<g id="edge11" class="edge"><title>BlockDragging&#45;&gt;Falling</title>
<path fill="none" stroke="black" d="M106.86,-292.335C98.5628,-282.155 88.3128,-268.78 80.5,-256 67.8867,-235.368 56.2923,-210.457 48.3296,-191.998"/>
<polygon fill="black" stroke="black" points="51.5279,-190.575 44.4035,-182.733 45.0827,-193.306 51.5279,-190.575"/>
</g>
<!-- StopClock -->
<g id="node10" class="node"><title>StopClock</title>
<polygon fill="none" stroke="black" points="93,-146.5 93,-182.5 174,-182.5 174,-146.5 93,-146.5"/>
<text text-anchor="start" x="101" y="-160.8" font-family="Times New Roman,serif" font-size="14.00">Stop Clock</text>
</g>
<!-- Matches&#45;&gt;StopClock -->
<g id="edge12" class="edge"><title>Matches&#45;&gt;StopClock</title>
<path fill="none" stroke="black" d="M124.405,-219.313C125.761,-211.289 127.407,-201.547 128.925,-192.569"/>
<polygon fill="black" stroke="black" points="132.406,-192.972 130.622,-182.529 125.504,-191.806 132.406,-192.972"/>
</g>
<!-- ClearAnimation -->
<g id="node11" class="node"><title>ClearAnimation</title>
<polygon fill="none" stroke="black" points="192,-146.5 192,-182.5 299,-182.5 299,-146.5 192,-146.5"/>
<text text-anchor="start" x="200" y="-160.8" font-family="Times New Roman,serif" font-size="14.00">Clear Animation</text>
</g>
<!-- Matches&#45;&gt;ClearAnimation -->
<g id="edge13" class="edge"><title>Matches&#45;&gt;ClearAnimation</title>
<path fill="none" stroke="black" d="M151.201,-219.494C167.797,-209.991 188.676,-198.036 206.567,-187.792"/>
<polygon fill="black" stroke="black" points="208.673,-190.62 215.611,-182.614 205.194,-184.545 208.673,-190.62"/>
</g>
<!-- Combo -->
<g id="node12" class="node"><title>Combo</title>
<polygon fill="none" stroke="black" points="145,-73.5 145,-109.5 204,-109.5 204,-73.5 145,-73.5"/>
<text text-anchor="middle" x="174.5" y="-87.8" font-family="Times New Roman,serif" font-size="14.00">Combo</text>
</g>
<!-- Falling&#45;&gt;Combo -->
<g id="edge14" class="edge"><title>Falling&#45;&gt;Combo</title>
<path fill="none" stroke="black" d="M70.3149,-146.494C89.948,-136.319 115.007,-123.332 135.629,-112.645"/>
<polygon fill="black" stroke="black" points="137.488,-115.624 144.756,-107.915 134.267,-109.409 137.488,-115.624"/>
</g>
<!-- StopClock&#45;&gt;Combo -->
<g id="edge15" class="edge"><title>StopClock&#45;&gt;Combo</title>
<path fill="none" stroke="black" d="M143.425,-146.313C148.26,-137.941 154.175,-127.697 159.542,-118.403"/>
<polygon fill="black" stroke="black" points="162.697,-119.939 164.666,-109.529 156.635,-116.438 162.697,-119.939"/>
</g>
<!-- ClearAnimation&#45;&gt;Combo -->
<g id="edge16" class="edge"><title>ClearAnimation&#45;&gt;Combo</title>
<path fill="none" stroke="black" d="M228.313,-146.313C219.417,-137.417 208.409,-126.409 198.672,-116.672"/>
<polygon fill="black" stroke="black" points="201.075,-114.125 191.529,-109.529 196.125,-119.075 201.075,-114.125"/>
</g>
<!-- Garbage -->
<g id="node20" class="node"><title>Garbage</title>
<polygon fill="none" stroke="black" points="316.5,-0.5 316.5,-36.5 380.5,-36.5 380.5,-0.5 316.5,-0.5"/>
<text text-anchor="middle" x="348.5" y="-14.8" font-family="Times New Roman,serif" font-size="14.00">Garbage</text>
</g>
<!-- Combo&#45;&gt;Garbage -->
<g id="edge17" class="edge"><title>Combo&#45;&gt;Garbage</title>
<path fill="none" stroke="black" d="M204.017,-78.4558C232.311,-66.9106 275.286,-49.3746 307.017,-36.4269"/>
<polygon fill="black" stroke="black" points="308.538,-39.5864 316.475,-32.5677 305.894,-33.1052 308.538,-39.5864"/>
</g>
<!-- DangerAnimation -->
<g id="node14" class="node"><title>DangerAnimation</title>
<polygon fill="none" stroke="black" points="263,-73.5 263,-109.5 380,-109.5 380,-73.5 263,-73.5"/>
<text text-anchor="start" x="271" y="-87.8" font-family="Times New Roman,serif" font-size="14.00">Danger Animation</text>
</g>
<!-- Lose&#45;&gt;DangerAnimation -->
<g id="edge18" class="edge"><title>Lose&#45;&gt;DangerAnimation</title>
<path fill="none" stroke="black" d="M347.27,-146.313C343.302,-138.028 338.457,-127.91 334.043,-118.693"/>
<polygon fill="black" stroke="black" points="337.13,-117.036 329.655,-109.529 330.817,-120.06 337.13,-117.036"/>
</g>
<!-- Replay -->
<g id="node22" class="node"><title>Replay</title>
<polygon fill="none" stroke="black" points="398.5,-73.5 398.5,-109.5 454.5,-109.5 454.5,-73.5 398.5,-73.5"/>
<text text-anchor="middle" x="426.5" y="-87.8" font-family="Times New Roman,serif" font-size="14.00">Replay</text>
</g>
<!-- Lose&#45;&gt;Replay -->
<g id="edge19" class="edge"><title>Lose&#45;&gt;Replay</title>
<path fill="none" stroke="black" d="M372.687,-146.313C381.583,-137.417 392.591,-126.409 402.328,-116.672"/>
<polygon fill="black" stroke="black" points="404.875,-119.075 409.471,-109.529 399.925,-114.125 404.875,-119.075"/>
</g>
<!-- Server -->
<g id="node15" class="node"><title>Server</title>
<polygon fill="none" stroke="black" points="493.5,-438.5 493.5,-474.5 547.5,-474.5 547.5,-438.5 493.5,-438.5"/>
<text text-anchor="middle" x="520.5" y="-452.8" font-family="Times New Roman,serif" font-size="14.00">Server</text>
</g>
<!-- Host -->
<g id="node16" class="node"><title>Host</title>
<polygon fill="none" stroke="black" points="447.5,-365.5 447.5,-401.5 501.5,-401.5 501.5,-365.5 447.5,-365.5"/>
<text text-anchor="middle" x="474.5" y="-379.8" font-family="Times New Roman,serif" font-size="14.00">Host</text>
</g>
<!-- Server&#45;&gt;Host -->
<g id="edge20" class="edge"><title>Server&#45;&gt;Host</title>
<path fill="none" stroke="black" d="M509.365,-438.313C503.884,-429.853 497.165,-419.484 491.094,-410.112"/>
<polygon fill="black" stroke="black" points="493.908,-408.018 485.533,-401.529 488.033,-411.824 493.908,-408.018"/>
</g>
<!-- Disconnected -->
<g id="node18" class="node"><title>Disconnected</title>
<polygon fill="none" stroke="black" points="520,-365.5 520,-401.5 613,-401.5 613,-365.5 520,-365.5"/>
<text text-anchor="middle" x="566.5" y="-379.8" font-family="Times New Roman,serif" font-size="14.00">Disconnected</text>
</g>
<!-- Server&#45;&gt;Disconnected -->
<g id="edge21" class="edge"><title>Server&#45;&gt;Disconnected</title>
<path fill="none" stroke="black" d="M531.635,-438.313C537.116,-429.853 543.835,-419.484 549.906,-410.112"/>
<polygon fill="black" stroke="black" points="552.967,-411.824 555.467,-401.529 547.092,-408.018 552.967,-411.824"/>
</g>
<!-- Join -->
<g id="node17" class="node"><title>Join</title>
<polygon fill="none" stroke="black" points="475.5,-292.5 475.5,-328.5 529.5,-328.5 529.5,-292.5 475.5,-292.5"/>
<text text-anchor="middle" x="502.5" y="-306.8" font-family="Times New Roman,serif" font-size="14.00">Join</text>
</g>
<!-- Host&#45;&gt;Join -->
<g id="edge22" class="edge"><title>Host&#45;&gt;Join</title>
<path fill="none" stroke="black" d="M481.278,-365.313C484.511,-357.115 488.451,-347.123 492.055,-337.985"/>
<polygon fill="black" stroke="black" points="495.372,-339.116 495.784,-328.529 488.86,-336.548 495.372,-339.116"/>
</g>
<!-- ShareState -->
<g id="node19" class="node"><title>ShareState</title>
<polygon fill="none" stroke="black" points="435.5,-219.5 435.5,-255.5 515.5,-255.5 515.5,-219.5 435.5,-219.5"/>
<text text-anchor="start" x="443.5" y="-233.8" font-family="Times New Roman,serif" font-size="14.00">Share State</text>
</g>
<!-- Host&#45;&gt;ShareState -->
<g id="edge23" class="edge"><title>Host&#45;&gt;ShareState</title>
<path fill="none" stroke="black" d="M471.252,-365.225C469.454,-354.781 467.405,-341.175 466.5,-329 465.281,-312.601 465.131,-308.387 466.5,-292 467.217,-283.421 468.569,-274.147 470.012,-265.769"/>
<polygon fill="black" stroke="black" points="473.487,-266.223 471.846,-255.755 466.601,-264.961 473.487,-266.223"/>
</g>
<!-- Join&#45;&gt;ShareState -->
<g id="edge24" class="edge"><title>Join&#45;&gt;ShareState</title>
<path fill="none" stroke="black" d="M495.964,-292.313C492.847,-284.115 489.047,-274.123 485.572,-264.985"/>
<polygon fill="black" stroke="black" points="488.802,-263.632 481.976,-255.529 482.259,-266.12 488.802,-263.632"/>
</g>
<!-- ShareState&#45;&gt;Garbage -->
<g id="edge25" class="edge"><title>ShareState&#45;&gt;Garbage</title>
<path fill="none" stroke="black" d="M479.447,-219.385C485.775,-187.453 494.55,-117.968 463.5,-73 446.711,-48.685 415.926,-35.161 390.43,-27.7961"/>
<polygon fill="black" stroke="black" points="391.166,-24.37 380.602,-25.1779 389.364,-31.1342 391.166,-24.37"/>
</g>
<!-- Win -->
<g id="node21" class="node"><title>Win</title>
<polygon fill="none" stroke="black" points="400.5,-146.5 400.5,-182.5 454.5,-182.5 454.5,-146.5 400.5,-146.5"/>
<text text-anchor="middle" x="427.5" y="-160.8" font-family="Times New Roman,serif" font-size="14.00">Win</text>
</g>
<!-- ShareState&#45;&gt;Win -->
<g id="edge26" class="edge"><title>ShareState&#45;&gt;Win</title>
<path fill="none" stroke="black" d="M463.881,-219.313C458.103,-210.766 451.006,-200.269 444.62,-190.823"/>
<polygon fill="black" stroke="black" points="447.513,-188.853 439.012,-182.529 441.714,-192.774 447.513,-188.853"/>
</g>
<!-- Win&#45;&gt;Replay -->
<g id="edge27" class="edge"><title>Win&#45;&gt;Replay</title>
<path fill="none" stroke="black" d="M427.258,-146.313C427.145,-138.289 427.008,-128.547 426.881,-119.569"/>
<polygon fill="black" stroke="black" points="430.38,-119.479 426.74,-109.529 423.381,-119.577 430.38,-119.479"/>
</g>
</g>
</svg>
