<?xml version="1.0" encoding="UTF-8" standalone="no"?>
<!DOCTYPE svg PUBLIC "-//W3C//DTD SVG 1.1//EN"
 "http://www.w3.org/Graphics/SVG/1.1/DTD/svg11.dtd">
<!-- Generated by graphviz version 2.38.0 (20140413.2041)
 -->
<!-- Title: %3 Pages: 1 -->
<svg width="750pt" height="483pt"
 viewBox="0.00 0.00 750.32 483.00" xmlns="http://www.w3.org/2000/svg" xmlns:xlink="http://www.w3.org/1999/xlink">
<g id="graph0" class="graph" transform="scale(1 1) rotate(0) translate(4 479)">
<title>%3</title>
<polygon fill="white" stroke="none" points="-4,4 -4,-479 746.319,-479 746.319,4 -4,4"/>
<!-- Renderer -->
<g id="node1" class="node"><title>Renderer</title>
<polygon fill="none" stroke="gray" points="236.319,-438.5 236.319,-474.5 311.319,-474.5 311.319,-438.5 236.319,-438.5"/>
<text text-anchor="start" x="246.319" y="-460.3" font-family="Times New Roman,serif" font-size="14.00" fill="gray">Renderer </text>
<text text-anchor="start" x="244.319" y="-446.3" font-family="Times New Roman,serif" font-size="14.00" fill="gray"> </text>
<text text-anchor="start" x="248.319" y="-446.3" font-family="Times New Roman,serif" font-style="italic" font-size="14.00" fill="gray">Complete</text>
</g>
<!-- Grid -->
<g id="node2" class="node"><title>Grid</title>
<polygon fill="none" stroke="black" points="283.319,-365.5 283.319,-401.5 370.319,-401.5 370.319,-365.5 283.319,-365.5"/>
<text text-anchor="start" x="311.819" y="-387.3" font-family="Times New Roman,serif" font-size="14.00">Grid </text>
<text text-anchor="start" x="291.319" y="-373.3" font-family="Times New Roman,serif" font-size="14.00"> </text>
<text text-anchor="start" x="295.319" y="-373.3" font-family="Times New Roman,serif" font-style="italic" font-size="14.00">In Progress</text>
</g>
<!-- Renderer&#45;&gt;Grid -->
<g id="edge1" class="edge"><title>Renderer&#45;&gt;Grid</title>
<path fill="none" stroke="black" d="M286.649,-438.313C293.029,-429.766 300.864,-419.269 307.916,-409.823"/>
<polygon fill="black" stroke="black" points="310.93,-411.636 314.107,-401.529 305.321,-407.449 310.93,-411.636"/>
</g>
<!-- Touch -->
<g id="node3" class="node"><title>Touch</title>
<polygon fill="none" stroke="black" points="178.319,-365.5 178.319,-401.5 265.319,-401.5 265.319,-365.5 178.319,-365.5"/>
<text text-anchor="start" x="201.319" y="-387.3" font-family="Times New Roman,serif" font-size="14.00">Touch </text>
<text text-anchor="start" x="186.319" y="-373.3" font-family="Times New Roman,serif" font-size="14.00"> </text>
<text text-anchor="start" x="190.319" y="-373.3" font-family="Times New Roman,serif" font-style="italic" font-size="14.00">In Progress</text>
</g>
<!-- Renderer&#45;&gt;Touch -->
<g id="edge2" class="edge"><title>Renderer&#45;&gt;Touch</title>
<path fill="none" stroke="black" d="M261.231,-438.313C254.972,-429.766 247.284,-419.269 240.365,-409.823"/>
<polygon fill="black" stroke="black" points="243.023,-407.528 234.291,-401.529 237.376,-411.665 243.023,-407.528"/>
</g>
<!-- Advancing -->
<g id="node4" class="node"><title>Advancing</title>
<polygon fill="none" stroke="black" points="308.319,-292.5 308.319,-328.5 395.319,-328.5 395.319,-292.5 308.319,-292.5"/>
<text text-anchor="start" x="319.819" y="-314.3" font-family="Times New Roman,serif" font-size="14.00">Advancing </text>
<text text-anchor="start" x="316.319" y="-300.3" font-family="Times New Roman,serif" font-size="14.00"> </text>
<text text-anchor="start" x="320.319" y="-300.3" font-family="Times New Roman,serif" font-style="italic" font-size="14.00">In Progress</text>
</g>
<!-- Grid&#45;&gt;Advancing -->
<g id="edge3" class="edge"><title>Grid&#45;&gt;Advancing</title>
<path fill="none" stroke="black" d="M332.871,-365.313C335.757,-357.115 339.276,-347.123 342.493,-337.985"/>
<polygon fill="black" stroke="black" points="345.803,-339.124 345.823,-328.529 339.2,-336.799 345.803,-339.124"/>
</g>
<!-- BlockDragging -->
<g id="node6" class="node"><title>BlockDragging</title>
<polygon fill="none" stroke="black" points="144.319,-292.5 144.319,-328.5 251.319,-328.5 251.319,-292.5 144.319,-292.5"/>
<text text-anchor="start" x="152.319" y="-314.3" font-family="Times New Roman,serif" font-size="14.00">Block Dragging </text>
<text text-anchor="start" x="162.319" y="-300.3" font-family="Times New Roman,serif" font-size="14.00"> </text>
<text text-anchor="start" x="166.319" y="-300.3" font-family="Times New Roman,serif" font-style="italic" font-size="14.00">In Progress</text>
</g>
<!-- Grid&#45;&gt;BlockDragging -->
<g id="edge4" class="edge"><title>Grid&#45;&gt;BlockDragging</title>
<path fill="none" stroke="black" d="M295.92,-365.494C278.497,-355.904 256.535,-343.817 237.811,-333.511"/>
<polygon fill="black" stroke="black" points="239.361,-330.369 228.913,-328.614 235.986,-336.502 239.361,-330.369"/>
</g>
<!-- Touch&#45;&gt;BlockDragging -->
<g id="edge5" class="edge"><title>Touch&#45;&gt;BlockDragging</title>
<path fill="none" stroke="black" d="M216.009,-365.313C213.268,-357.202 209.932,-347.336 206.87,-338.277"/>
<polygon fill="black" stroke="black" points="210.093,-336.881 203.575,-328.529 203.462,-339.123 210.093,-336.881"/>
</g>
<!-- IntentionalAdvance -->
<g id="node9" class="node"><title>IntentionalAdvance</title>
<polygon fill="none" stroke="black" points="259.319,-219.5 259.319,-255.5 390.319,-255.5 390.319,-219.5 259.319,-219.5"/>
<text text-anchor="start" x="267.319" y="-241.3" font-family="Times New Roman,serif" font-size="14.00">Intentional Advance </text>
<text text-anchor="start" x="289.319" y="-227.3" font-family="Times New Roman,serif" font-size="14.00"> </text>
<text text-anchor="start" x="293.319" y="-227.3" font-family="Times New Roman,serif" font-style="italic" font-size="14.00">In Progress</text>
</g>
<!-- Touch&#45;&gt;IntentionalAdvance -->
<g id="edge6" class="edge"><title>Touch&#45;&gt;IntentionalAdvance</title>
<path fill="none" stroke="black" d="M234.039,-365.416C252.004,-340.3 285.669,-293.234 306.57,-264.014"/>
<polygon fill="black" stroke="black" points="309.644,-265.732 312.615,-255.562 303.951,-261.659 309.644,-265.732"/>
</g>
<!-- NewRows -->
<g id="node5" class="node"><title>NewRows</title>
<polygon fill="none" stroke="black" points="408.319,-219.5 408.319,-255.5 495.319,-255.5 495.319,-219.5 408.319,-219.5"/>
<text text-anchor="start" x="418.319" y="-241.3" font-family="Times New Roman,serif" font-size="14.00">New Rows </text>
<text text-anchor="start" x="416.319" y="-227.3" font-family="Times New Roman,serif" font-size="14.00"> </text>
<text text-anchor="start" x="420.319" y="-227.3" font-family="Times New Roman,serif" font-style="italic" font-size="14.00">In Progress</text>
</g>
<!-- Advancing&#45;&gt;NewRows -->
<g id="edge7" class="edge"><title>Advancing&#45;&gt;NewRows</title>
<path fill="none" stroke="black" d="M375.772,-292.494C388.787,-283.253 405.069,-271.692 419.225,-261.642"/>
<polygon fill="black" stroke="black" points="421.588,-264.257 427.715,-255.614 417.535,-258.549 421.588,-264.257"/>
</g>
<!-- Advancing&#45;&gt;IntentionalAdvance -->
<g id="edge8" class="edge"><title>Advancing&#45;&gt;IntentionalAdvance</title>
<path fill="none" stroke="black" d="M345.283,-292.313C342.166,-284.115 338.366,-274.123 334.891,-264.985"/>
<polygon fill="black" stroke="black" points="338.121,-263.632 331.295,-255.529 331.578,-266.12 338.121,-263.632"/>
</g>
<!-- Lose -->
<g id="node14" class="node"><title>Lose</title>
<polygon fill="none" stroke="black" points="399.319,-146.5 399.319,-182.5 486.319,-182.5 486.319,-146.5 399.319,-146.5"/>
<text text-anchor="start" x="426.819" y="-168.3" font-family="Times New Roman,serif" font-size="14.00">Lose </text>
<text text-anchor="start" x="407.319" y="-154.3" font-family="Times New Roman,serif" font-size="14.00"> </text>
<text text-anchor="start" x="411.319" y="-154.3" font-family="Times New Roman,serif" font-style="italic" font-size="14.00">In Progress</text>
</g>
<!-- NewRows&#45;&gt;Lose -->
<g id="edge9" class="edge"><title>NewRows&#45;&gt;Lose</title>
<path fill="none" stroke="black" d="M449.64,-219.313C448.623,-211.289 447.388,-201.547 446.25,-192.569"/>
<polygon fill="black" stroke="black" points="449.707,-192.009 444.978,-182.529 442.763,-192.89 449.707,-192.009"/>
</g>
<!-- Matches -->
<g id="node7" class="node"><title>Matches</title>
<polygon fill="none" stroke="black" points="154.319,-219.5 154.319,-255.5 241.319,-255.5 241.319,-219.5 154.319,-219.5"/>
<text text-anchor="start" x="171.819" y="-241.3" font-family="Times New Roman,serif" font-size="14.00">Matches </text>
<text text-anchor="start" x="162.319" y="-227.3" font-family="Times New Roman,serif" font-size="14.00"> </text>
<text text-anchor="start" x="166.319" y="-227.3" font-family="Times New Roman,serif" font-style="italic" font-size="14.00">In Progress</text>
</g>
<!-- BlockDragging&#45;&gt;Matches -->
<g id="edge10" class="edge"><title>BlockDragging&#45;&gt;Matches</title>
<path fill="none" stroke="black" d="M197.819,-292.313C197.819,-284.289 197.819,-274.547 197.819,-265.569"/>
<polygon fill="black" stroke="black" points="201.319,-265.529 197.819,-255.529 194.319,-265.529 201.319,-265.529"/>
</g>
<!-- Falling -->
<g id="node8" class="node"><title>Falling</title>
<polygon fill="none" stroke="black" points="34.319,-219.5 34.319,-255.5 121.319,-255.5 121.319,-219.5 34.319,-219.5"/>
<text text-anchor="start" x="57.319" y="-241.3" font-family="Times New Roman,serif" font-size="14.00">Falling </text>
<text text-anchor="start" x="42.319" y="-227.3" font-family="Times New Roman,serif" font-size="14.00"> </text>
<text text-anchor="start" x="46.319" y="-227.3" font-family="Times New Roman,serif" font-style="italic" font-size="14.00">In Progress</text>
</g>
<!-- BlockDragging&#45;&gt;Falling -->
<g id="edge11" class="edge"><title>BlockDragging&#45;&gt;Falling</title>
<path fill="none" stroke="black" d="M169.076,-292.494C153.016,-282.991 132.81,-271.036 115.496,-260.792"/>
<polygon fill="black" stroke="black" points="117.132,-257.694 106.743,-255.614 113.568,-263.718 117.132,-257.694"/>
</g>
<!-- StopClock -->
<g id="node10" class="node"><title>StopClock</title>
<polygon fill="none" stroke="black" points="286.319,-146.5 286.319,-182.5 373.319,-182.5 373.319,-146.5 286.319,-146.5"/>
<text text-anchor="start" x="295.319" y="-168.3" font-family="Times New Roman,serif" font-size="14.00">Stop Clock </text>
<text text-anchor="start" x="294.319" y="-154.3" font-family="Times New Roman,serif" font-size="14.00"> </text>
<text text-anchor="start" x="298.319" y="-154.3" font-family="Times New Roman,serif" font-style="italic" font-size="14.00">In Progress</text>
</g>
<!-- Matches&#45;&gt;StopClock -->
<g id="edge12" class="edge"><title>Matches&#45;&gt;StopClock</title>
<path fill="none" stroke="black" d="M229.436,-219.494C247.346,-209.861 269.942,-197.707 289.158,-187.37"/>
<polygon fill="black" stroke="black" points="290.853,-190.433 298.002,-182.614 287.537,-184.268 290.853,-190.433"/>
</g>
<!-- ClearAnimation -->
<g id="node12" class="node"><title>ClearAnimation</title>
<polygon fill="none" stroke="black" points="157.819,-146.5 157.819,-182.5 267.819,-182.5 267.819,-146.5 157.819,-146.5"/>
<text text-anchor="start" x="165.819" y="-168.3" font-family="Times New Roman,serif" font-size="14.00">Clear Animation </text>
<text text-anchor="start" x="177.319" y="-154.3" font-family="Times New Roman,serif" font-size="14.00"> </text>
<text text-anchor="start" x="181.319" y="-154.3" font-family="Times New Roman,serif" font-style="italic" font-size="14.00">In Progress</text>
</g>
<!-- Matches&#45;&gt;ClearAnimation -->
<g id="edge13" class="edge"><title>Matches&#45;&gt;ClearAnimation</title>
<path fill="none" stroke="black" d="M201.45,-219.313C203.145,-211.289 205.203,-201.547 207.1,-192.569"/>
<polygon fill="black" stroke="black" points="210.579,-193.036 209.221,-182.529 203.73,-191.589 210.579,-193.036"/>
</g>
<!-- TumbleAnimation -->
<g id="node11" class="node"><title>TumbleAnimation</title>
<polygon fill="none" stroke="black" points="15.819,-146.5 15.819,-182.5 139.819,-182.5 139.819,-146.5 15.819,-146.5"/>
<text text-anchor="start" x="23.819" y="-168.3" font-family="Times New Roman,serif" font-size="14.00">Tumble Animation </text>
<text text-anchor="start" x="42.319" y="-154.3" font-family="Times New Roman,serif" font-size="14.00"> </text>
<text text-anchor="start" x="46.319" y="-154.3" font-family="Times New Roman,serif" font-style="italic" font-size="14.00">In Progress</text>
</g>
<!-- Falling&#45;&gt;TumbleAnimation -->
<g id="edge14" class="edge"><title>Falling&#45;&gt;TumbleAnimation</title>
<path fill="none" stroke="black" d="M77.819,-219.313C77.819,-211.289 77.819,-201.547 77.819,-192.569"/>
<polygon fill="black" stroke="black" points="81.3191,-192.529 77.819,-182.529 74.3191,-192.529 81.3191,-192.529"/>
</g>
<!-- Combo -->
<g id="node13" class="node"><title>Combo</title>
<polygon fill="none" stroke="black" points="214.319,-73.5 214.319,-109.5 301.319,-109.5 301.319,-73.5 214.319,-73.5"/>
<text text-anchor="start" x="234.319" y="-95.3" font-family="Times New Roman,serif" font-size="14.00">Combo </text>
<text text-anchor="start" x="222.319" y="-81.3" font-family="Times New Roman,serif" font-size="14.00"> </text>
<text text-anchor="start" x="226.319" y="-81.3" font-family="Times New Roman,serif" font-style="italic" font-size="14.00">In Progress</text>
</g>
<!-- Falling&#45;&gt;Combo -->
<g id="edge15" class="edge"><title>Falling&#45;&gt;Combo</title>
<path fill="none" stroke="black" d="M43.019,-219.445C29.0862,-210.644 14.5322,-198.47 6.81904,-183 -0.51859,-168.283 -3.52617,-158.783 6.81904,-146 31.1306,-115.96 137.744,-102.066 203.959,-96.2297"/>
<polygon fill="black" stroke="black" points="204.551,-99.6921 214.22,-95.3609 203.961,-92.7171 204.551,-99.6921"/>
</g>
<!-- StopClock&#45;&gt;Combo -->
<g id="edge16" class="edge"><title>StopClock&#45;&gt;Combo</title>
<path fill="none" stroke="black" d="M312.39,-146.313C303.369,-137.417 292.206,-126.409 282.331,-116.672"/>
<polygon fill="black" stroke="black" points="284.666,-114.058 275.088,-109.529 279.751,-119.042 284.666,-114.058"/>
</g>
<!-- ClearAnimation&#45;&gt;Combo -->
<g id="edge17" class="edge"><title>ClearAnimation&#45;&gt;Combo</title>
<path fill="none" stroke="black" d="M223.712,-146.313C229.074,-137.853 235.646,-127.484 241.586,-118.112"/>
<polygon fill="black" stroke="black" points="244.629,-119.849 247.026,-109.529 238.716,-116.102 244.629,-119.849"/>
</g>
<!-- Garbage -->
<g id="node21" class="node"><title>Garbage</title>
<polygon fill="none" stroke="black" points="417.319,-0.5 417.319,-36.5 504.319,-36.5 504.319,-0.5 417.319,-0.5"/>
<text text-anchor="start" x="434.819" y="-22.3" font-family="Times New Roman,serif" font-size="14.00">Garbage </text>
<text text-anchor="start" x="425.319" y="-8.3" font-family="Times New Roman,serif" font-size="14.00"> </text>
<text text-anchor="start" x="429.319" y="-8.3" font-family="Times New Roman,serif" font-style="italic" font-size="14.00">In Progress</text>
</g>
<!-- Combo&#45;&gt;Garbage -->
<g id="edge18" class="edge"><title>Combo&#45;&gt;Garbage</title>
<path fill="none" stroke="black" d="M301.368,-75.2687C332.435,-64.4027 374.397,-49.7265 407.476,-38.1571"/>
<polygon fill="black" stroke="black" points="408.709,-41.4337 416.993,-34.8284 406.398,-34.8262 408.709,-41.4337"/>
</g>
<!-- DangerAnimation -->
<g id="node15" class="node"><title>DangerAnimation</title>
<polygon fill="none" stroke="black" points="365.319,-73.5 365.319,-109.5 486.319,-109.5 486.319,-73.5 365.319,-73.5"/>
<text text-anchor="start" x="373.319" y="-95.3" font-family="Times New Roman,serif" font-size="14.00">Danger Animation </text>
<text text-anchor="start" x="390.319" y="-81.3" font-family="Times New Roman,serif" font-size="14.00"> </text>
<text text-anchor="start" x="394.319" y="-81.3" font-family="Times New Roman,serif" font-style="italic" font-size="14.00">In Progress</text>
</g>
<!-- Lose&#45;&gt;DangerAnimation -->
<g id="edge19" class="edge"><title>Lose&#45;&gt;DangerAnimation</title>
<path fill="none" stroke="black" d="M438.704,-146.313C436.762,-138.202 434.399,-128.336 432.23,-119.277"/>
<polygon fill="black" stroke="black" points="435.629,-118.439 429.896,-109.529 428.821,-120.069 435.629,-118.439"/>
</g>
<!-- Replay -->
<g id="node23" class="node"><title>Replay</title>
<polygon fill="none" stroke="black" points="504.319,-73.5 504.319,-109.5 591.319,-109.5 591.319,-73.5 504.319,-73.5"/>
<text text-anchor="start" x="526.319" y="-95.3" font-family="Times New Roman,serif" font-size="14.00">Replay </text>
<text text-anchor="start" x="512.319" y="-81.3" font-family="Times New Roman,serif" font-size="14.00"> </text>
<text text-anchor="start" x="516.319" y="-81.3" font-family="Times New Roman,serif" font-style="italic" font-size="14.00">In Progress</text>
</g>
<!-- Lose&#45;&gt;Replay -->
<g id="edge20" class="edge"><title>Lose&#45;&gt;Replay</title>
<path fill="none" stroke="black" d="M467.969,-146.494C481.764,-137.166 499.054,-125.474 514.015,-115.358"/>
<polygon fill="black" stroke="black" points="516.187,-118.114 522.51,-109.614 512.266,-112.316 516.187,-118.114"/>
</g>
<!-- Server -->
<g id="node16" class="node"><title>Server</title>
<polygon fill="none" stroke="black" points="595.319,-438.5 595.319,-474.5 682.319,-474.5 682.319,-438.5 595.319,-438.5"/>
<text text-anchor="start" x="618.819" y="-460.3" font-family="Times New Roman,serif" font-size="14.00">Server </text>
<text text-anchor="start" x="603.319" y="-446.3" font-family="Times New Roman,serif" font-size="14.00"> </text>
<text text-anchor="start" x="607.319" y="-446.3" font-family="Times New Roman,serif" font-style="italic" font-size="14.00">In Progress</text>
</g>
<!-- Host -->
<g id="node17" class="node"><title>Host</title>
<polygon fill="none" stroke="black" points="540.319,-365.5 540.319,-401.5 627.319,-401.5 627.319,-365.5 540.319,-365.5"/>
<text text-anchor="start" x="568.319" y="-387.3" font-family="Times New Roman,serif" font-size="14.00">Host </text>
<text text-anchor="start" x="548.319" y="-373.3" font-family="Times New Roman,serif" font-size="14.00"> </text>
<text text-anchor="start" x="552.319" y="-373.3" font-family="Times New Roman,serif" font-style="italic" font-size="14.00">In Progress</text>
</g>
<!-- Server&#45;&gt;Host -->
<g id="edge21" class="edge"><title>Server&#45;&gt;Host</title>
<path fill="none" stroke="black" d="M625.505,-438.313C618.817,-429.679 610.587,-419.055 603.212,-409.534"/>
<polygon fill="black" stroke="black" points="605.901,-407.291 597.01,-401.529 600.367,-411.578 605.901,-407.291"/>
</g>
<!-- Disconnected -->
<g id="node19" class="node"><title>Disconnected</title>
<polygon fill="none" stroke="black" points="645.319,-365.5 645.319,-401.5 742.319,-401.5 742.319,-365.5 645.319,-365.5"/>
<text text-anchor="start" x="653.319" y="-387.3" font-family="Times New Roman,serif" font-size="14.00">Disconnected </text>
<text text-anchor="start" x="658.319" y="-373.3" font-family="Times New Roman,serif" font-size="14.00"> </text>
<text text-anchor="start" x="662.319" y="-373.3" font-family="Times New Roman,serif" font-style="italic" font-size="14.00">In Progress</text>
</g>
<!-- Server&#45;&gt;Disconnected -->
<g id="edge22" class="edge"><title>Server&#45;&gt;Disconnected</title>
<path fill="none" stroke="black" d="M652.133,-438.313C658.821,-429.679 667.051,-419.055 674.426,-409.534"/>
<polygon fill="black" stroke="black" points="677.271,-411.578 680.628,-401.529 671.737,-407.291 677.271,-411.578"/>
</g>
<!-- Join -->
<g id="node18" class="node"><title>Join</title>
<polygon fill="none" stroke="black" points="576.319,-292.5 576.319,-328.5 663.319,-328.5 663.319,-292.5 576.319,-292.5"/>
<text text-anchor="start" x="606.319" y="-314.3" font-family="Times New Roman,serif" font-size="14.00">Join </text>
<text text-anchor="start" x="584.319" y="-300.3" font-family="Times New Roman,serif" font-size="14.00"> </text>
<text text-anchor="start" x="588.319" y="-300.3" font-family="Times New Roman,serif" font-style="italic" font-size="14.00">In Progress</text>
</g>
<!-- Host&#45;&gt;Join -->
<g id="edge23" class="edge"><title>Host&#45;&gt;Join</title>
<path fill="none" stroke="black" d="M592.534,-365.313C596.734,-357.028 601.865,-346.91 606.538,-337.693"/>
<polygon fill="black" stroke="black" points="609.784,-339.031 611.185,-328.529 603.541,-335.865 609.784,-339.031"/>
</g>
<!-- ShareState -->
<g id="node20" class="node"><title>ShareState</title>
<polygon fill="none" stroke="black" points="540.319,-219.5 540.319,-255.5 627.319,-255.5 627.319,-219.5 540.319,-219.5"/>
<text text-anchor="start" x="550.319" y="-241.3" font-family="Times New Roman,serif" font-size="14.00">Share State </text>
<text text-anchor="start" x="548.319" y="-227.3" font-family="Times New Roman,serif" font-size="14.00"> </text>
<text text-anchor="start" x="552.319" y="-227.3" font-family="Times New Roman,serif" font-style="italic" font-size="14.00">In Progress</text>
</g>
<!-- Host&#45;&gt;ShareState -->
<g id="edge24" class="edge"><title>Host&#45;&gt;ShareState</title>
<path fill="none" stroke="black" d="M576.929,-365.476C573.114,-355.121 568.76,-341.52 566.819,-329 564.299,-312.75 564.299,-308.25 566.819,-292 568.199,-283.099 570.799,-273.652 573.557,-265.213"/>
<polygon fill="black" stroke="black" points="576.947,-266.119 576.929,-255.524 570.336,-263.818 576.947,-266.119"/>
</g>
<!-- Join&#45;&gt;ShareState -->
<g id="edge25" class="edge"><title>Join&#45;&gt;ShareState</title>
<path fill="none" stroke="black" d="M611.104,-292.313C606.904,-284.028 601.774,-273.91 597.1,-264.693"/>
<polygon fill="black" stroke="black" points="600.097,-262.865 592.453,-255.529 593.854,-266.031 600.097,-262.865"/>
</g>
<!-- ShareState&#45;&gt;Garbage -->
<g id="edge26" class="edge"><title>ShareState&#45;&gt;Garbage</title>
<path fill="none" stroke="black" d="M592.131,-219.417C606.317,-187.54 630.815,-118.143 599.819,-73 580.752,-45.2302 545.095,-31.8691 514.671,-25.4433"/>
<polygon fill="black" stroke="black" points="515.064,-21.9552 504.585,-23.5192 513.752,-28.8312 515.064,-21.9552"/>
</g>
<!-- Win -->
<g id="node22" class="node"><title>Win</title>
<polygon fill="none" stroke="black" points="504.319,-146.5 504.319,-182.5 591.319,-182.5 591.319,-146.5 504.319,-146.5"/>
<text text-anchor="start" x="533.819" y="-168.3" font-family="Times New Roman,serif" font-size="14.00">Win </text>
<text text-anchor="start" x="512.319" y="-154.3" font-family="Times New Roman,serif" font-size="14.00"> </text>
<text text-anchor="start" x="516.319" y="-154.3" font-family="Times New Roman,serif" font-style="italic" font-size="14.00">In Progress</text>
</g>
<!-- ShareState&#45;&gt;Win -->
<g id="edge27" class="edge"><title>ShareState&#45;&gt;Win</title>
<path fill="none" stroke="black" d="M575.104,-219.313C570.904,-211.028 565.774,-200.91 561.1,-191.693"/>
<polygon fill="black" stroke="black" points="564.097,-189.865 556.453,-182.529 557.854,-193.031 564.097,-189.865"/>
</g>
<!-- Win&#45;&gt;Replay -->
<g id="edge28" class="edge"><title>Win&#45;&gt;Replay</title>
<path fill="none" stroke="black" d="M547.819,-146.313C547.819,-138.289 547.819,-128.547 547.819,-119.569"/>
<polygon fill="black" stroke="black" points="551.319,-119.529 547.819,-109.529 544.319,-119.529 551.319,-119.529"/>
</g>
</g>
</svg>
