<?xml version="1.0" encoding="UTF-8" standalone="no"?>
<!DOCTYPE svg PUBLIC "-//W3C//DTD SVG 1.1//EN"
 "http://www.w3.org/Graphics/SVG/1.1/DTD/svg11.dtd">
<!-- Generated by graphviz version 2.38.0 (20140413.2041)
 -->
<!-- Title: %3 Pages: 1 -->
<svg width="687pt" height="483pt"
 viewBox="0.00 0.00 687.26 483.00" xmlns="http://www.w3.org/2000/svg" xmlns:xlink="http://www.w3.org/1999/xlink">
<g id="graph0" class="graph" transform="scale(1 1) rotate(0) translate(4 479)">
<title>%3</title>
<polygon fill="white" stroke="none" points="-4,4 -4,-479 683.256,-479 683.256,4 -4,4"/>
<!-- Renderer -->
<g id="node1" class="node"><title>Renderer</title>
<polygon fill="none" stroke="gray" points="226.256,-438.5 226.256,-474.5 301.256,-474.5 301.256,-438.5 226.256,-438.5"/>
<text text-anchor="start" x="236.256" y="-460.3" font-family="Times New Roman,serif" font-size="14.00" fill="gray">Renderer </text>
<text text-anchor="start" x="234.256" y="-446.3" font-family="Times New Roman,serif" font-size="14.00" fill="gray"> </text>
<text text-anchor="start" x="238.256" y="-446.3" font-family="Times New Roman,serif" font-style="italic" font-size="14.00" fill="gray">Complete</text>
</g>
<!-- Grid -->
<g id="node2" class="node"><title>Grid</title>
<polygon fill="none" stroke="gray" points="273.256,-365.5 273.256,-401.5 348.256,-401.5 348.256,-365.5 273.256,-365.5"/>
<text text-anchor="start" x="295.756" y="-387.3" font-family="Times New Roman,serif" font-size="14.00" fill="gray">Grid </text>
<text text-anchor="start" x="281.256" y="-373.3" font-family="Times New Roman,serif" font-size="14.00" fill="gray"> </text>
<text text-anchor="start" x="285.256" y="-373.3" font-family="Times New Roman,serif" font-style="italic" font-size="14.00" fill="gray">Complete</text>
</g>
<!-- Renderer&#45;&gt;Grid -->
<g id="edge1" class="edge"><title>Renderer&#45;&gt;Grid</title>
<path fill="none" stroke="black" d="M275.134,-438.313C280.733,-429.853 287.598,-419.484 293.801,-410.112"/>
<polygon fill="black" stroke="black" points="296.882,-411.799 299.484,-401.529 291.045,-407.935 296.882,-411.799"/>
</g>
<!-- Touch -->
<g id="node3" class="node"><title>Touch</title>
<polygon fill="none" stroke="gray" points="180.256,-365.5 180.256,-401.5 255.256,-401.5 255.256,-365.5 180.256,-365.5"/>
<text text-anchor="start" x="197.256" y="-387.3" font-family="Times New Roman,serif" font-size="14.00" fill="gray">Touch </text>
<text text-anchor="start" x="188.256" y="-373.3" font-family="Times New Roman,serif" font-size="14.00" fill="gray"> </text>
<text text-anchor="start" x="192.256" y="-373.3" font-family="Times New Roman,serif" font-style="italic" font-size="14.00" fill="gray">Complete</text>
</g>
<!-- Renderer&#45;&gt;Touch -->
<g id="edge2" class="edge"><title>Renderer&#45;&gt;Touch</title>
<path fill="none" stroke="black" d="M252.621,-438.313C247.14,-429.853 240.422,-419.484 234.35,-410.112"/>
<polygon fill="black" stroke="black" points="237.164,-408.018 228.789,-401.529 231.289,-411.824 237.164,-408.018"/>
</g>
<!-- Advancing -->
<g id="node4" class="node"><title>Advancing</title>
<polygon fill="none" stroke="gray" points="298.756,-292.5 298.756,-328.5 378.756,-328.5 378.756,-292.5 298.756,-292.5"/>
<text text-anchor="start" x="306.756" y="-314.3" font-family="Times New Roman,serif" font-size="14.00" fill="gray">Advancing </text>
<text text-anchor="start" x="309.256" y="-300.3" font-family="Times New Roman,serif" font-size="14.00" fill="gray"> </text>
<text text-anchor="start" x="313.256" y="-300.3" font-family="Times New Roman,serif" font-style="italic" font-size="14.00" fill="gray">Complete</text>
</g>
<!-- Grid&#45;&gt;Advancing -->
<g id="edge3" class="edge"><title>Grid&#45;&gt;Advancing</title>
<path fill="none" stroke="black" d="M317.534,-365.313C320.767,-357.115 324.708,-347.123 328.311,-337.985"/>
<polygon fill="black" stroke="black" points="331.628,-339.116 332.041,-328.529 325.116,-336.548 331.628,-339.116"/>
</g>
<!-- BlockDragging -->
<g id="node6" class="node"><title>BlockDragging</title>
<polygon fill="none" stroke="black" points="138.756,-292.5 138.756,-328.5 242.756,-328.5 242.756,-292.5 138.756,-292.5"/>
<text text-anchor="start" x="146.756" y="-306.8" font-family="Times New Roman,serif" font-size="14.00">Block Dragging</text>
</g>
<!-- Grid&#45;&gt;BlockDragging -->
<g id="edge4" class="edge"><title>Grid&#45;&gt;BlockDragging</title>
<path fill="none" stroke="black" d="M282.013,-365.494C265.953,-355.991 245.747,-344.036 228.433,-333.792"/>
<polygon fill="black" stroke="black" points="230.069,-330.694 219.681,-328.614 226.505,-336.718 230.069,-330.694"/>
</g>
<!-- Touch&#45;&gt;BlockDragging -->
<g id="edge5" class="edge"><title>Touch&#45;&gt;BlockDragging</title>
<path fill="none" stroke="black" d="M211.22,-365.313C208.103,-357.115 204.303,-347.123 200.828,-337.985"/>
<polygon fill="black" stroke="black" points="204.058,-336.632 197.232,-328.529 197.515,-339.12 204.058,-336.632"/>
</g>
<!-- IntentionalAdvance -->
<g id="node9" class="node"><title>IntentionalAdvance</title>
<polygon fill="none" stroke="black" points="240.756,-219.5 240.756,-255.5 368.756,-255.5 368.756,-219.5 240.756,-219.5"/>
<text text-anchor="start" x="248.756" y="-233.8" font-family="Times New Roman,serif" font-size="14.00">Intentional Advance</text>
</g>
<!-- Touch&#45;&gt;IntentionalAdvance -->
<g id="edge6" class="edge"><title>Touch&#45;&gt;IntentionalAdvance</title>
<path fill="none" stroke="black" d="M228.941,-365.252C235.652,-354.817 244.303,-341.212 251.756,-329 264.922,-307.427 279.392,-282.642 289.881,-264.471"/>
<polygon fill="black" stroke="black" points="293.019,-266.036 294.976,-255.623 286.953,-262.543 293.019,-266.036"/>
</g>
<!-- NewRows -->
<g id="node5" class="node"><title>NewRows</title>
<polygon fill="none" stroke="gray" points="387.256,-219.5 387.256,-255.5 470.256,-255.5 470.256,-219.5 387.256,-219.5"/>
<text text-anchor="start" x="395.256" y="-241.3" font-family="Times New Roman,serif" font-size="14.00" fill="gray">New Rows </text>
<text text-anchor="start" x="399.256" y="-227.3" font-family="Times New Roman,serif" font-size="14.00" fill="gray"> </text>
<text text-anchor="start" x="403.256" y="-227.3" font-family="Times New Roman,serif" font-style="italic" font-size="14.00" fill="gray">Complete</text>
</g>
<!-- Advancing&#45;&gt;NewRows -->
<g id="edge7" class="edge"><title>Advancing&#45;&gt;NewRows</title>
<path fill="none" stroke="black" d="M360.543,-292.313C372.15,-283.156 386.596,-271.76 399.201,-261.816"/>
<polygon fill="black" stroke="black" points="401.487,-264.47 407.17,-255.529 397.151,-258.975 401.487,-264.47"/>
</g>
<!-- Advancing&#45;&gt;IntentionalAdvance -->
<g id="edge8" class="edge"><title>Advancing&#45;&gt;IntentionalAdvance</title>
<path fill="none" stroke="black" d="M330.526,-292.313C326.558,-284.028 321.713,-273.91 317.299,-264.693"/>
<polygon fill="black" stroke="black" points="320.387,-263.036 312.911,-255.529 314.073,-266.06 320.387,-263.036"/>
</g>
<!-- Lose -->
<g id="node14" class="node"><title>Lose</title>
<polygon fill="none" stroke="black" points="394.756,-146.5 394.756,-182.5 448.756,-182.5 448.756,-146.5 394.756,-146.5"/>
<text text-anchor="middle" x="421.756" y="-160.8" font-family="Times New Roman,serif" font-size="14.00">Lose</text>
</g>
<!-- NewRows&#45;&gt;Lose -->
<g id="edge9" class="edge"><title>NewRows&#45;&gt;Lose</title>
<path fill="none" stroke="black" d="M427.062,-219.313C426.271,-211.289 425.31,-201.547 424.425,-192.569"/>
<polygon fill="black" stroke="black" points="427.899,-192.137 423.435,-182.529 420.933,-192.824 427.899,-192.137"/>
</g>
<!-- Matches -->
<g id="node7" class="node"><title>Matches</title>
<polygon fill="none" stroke="black" points="158.756,-219.5 158.756,-255.5 222.756,-255.5 222.756,-219.5 158.756,-219.5"/>
<text text-anchor="middle" x="190.756" y="-233.8" font-family="Times New Roman,serif" font-size="14.00">Matches</text>
</g>
<!-- BlockDragging&#45;&gt;Matches -->
<g id="edge10" class="edge"><title>BlockDragging&#45;&gt;Matches</title>
<path fill="none" stroke="black" d="M190.756,-292.313C190.756,-284.289 190.756,-274.547 190.756,-265.569"/>
<polygon fill="black" stroke="black" points="194.256,-265.529 190.756,-255.529 187.256,-265.529 194.256,-265.529"/>
</g>
<!-- Falling -->
<g id="node8" class="node"><title>Falling</title>
<polygon fill="none" stroke="black" points="48.7562,-219.5 48.7562,-255.5 102.756,-255.5 102.756,-219.5 48.7562,-219.5"/>
<text text-anchor="middle" x="75.7562" y="-233.8" font-family="Times New Roman,serif" font-size="14.00">Falling</text>
</g>
<!-- BlockDragging&#45;&gt;Falling -->
<g id="edge11" class="edge"><title>BlockDragging&#45;&gt;Falling</title>
<path fill="none" stroke="black" d="M163.211,-292.494C147.849,-283.009 128.529,-271.081 111.958,-260.85"/>
<polygon fill="black" stroke="black" points="113.424,-257.643 103.077,-255.368 109.747,-263.599 113.424,-257.643"/>
</g>
<!-- StopClock -->
<g id="node10" class="node"><title>StopClock</title>
<polygon fill="none" stroke="black" points="279.256,-146.5 279.256,-182.5 360.256,-182.5 360.256,-146.5 279.256,-146.5"/>
<text text-anchor="start" x="287.256" y="-160.8" font-family="Times New Roman,serif" font-size="14.00">Stop Clock</text>
</g>
<!-- Matches&#45;&gt;StopClock -->
<g id="edge12" class="edge"><title>Matches&#45;&gt;StopClock</title>
<path fill="none" stroke="black" d="M221.655,-219.494C239.078,-209.904 261.04,-197.817 279.764,-187.511"/>
<polygon fill="black" stroke="black" points="281.589,-190.502 288.662,-182.614 278.214,-184.369 281.589,-190.502"/>
</g>
<!-- ClearAnimation -->
<g id="node12" class="node"><title>ClearAnimation</title>
<polygon fill="none" stroke="black" points="154.256,-146.5 154.256,-182.5 261.256,-182.5 261.256,-146.5 154.256,-146.5"/>
<text text-anchor="start" x="162.256" y="-160.8" font-family="Times New Roman,serif" font-size="14.00">Clear Animation</text>
</g>
<!-- Matches&#45;&gt;ClearAnimation -->
<g id="edge13" class="edge"><title>Matches&#45;&gt;ClearAnimation</title>
<path fill="none" stroke="black" d="M194.871,-219.313C196.813,-211.202 199.176,-201.336 201.345,-192.277"/>
<polygon fill="black" stroke="black" points="204.754,-193.069 203.679,-182.529 197.946,-191.439 204.754,-193.069"/>
</g>
<!-- TumbleAnimation -->
<g id="node11" class="node"><title>TumbleAnimation</title>
<polygon fill="none" stroke="black" points="15.7562,-146.5 15.7562,-182.5 135.756,-182.5 135.756,-146.5 15.7562,-146.5"/>
<text text-anchor="start" x="23.7562" y="-160.8" font-family="Times New Roman,serif" font-size="14.00">Tumble Animation</text>
</g>
<!-- Falling&#45;&gt;TumbleAnimation -->
<g id="edge14" class="edge"><title>Falling&#45;&gt;TumbleAnimation</title>
<path fill="none" stroke="black" d="M75.7562,-219.313C75.7562,-211.289 75.7562,-201.547 75.7562,-192.569"/>
<polygon fill="black" stroke="black" points="79.2563,-192.529 75.7562,-182.529 72.2563,-192.529 79.2563,-192.529"/>
</g>
<!-- Combo -->
<g id="node13" class="node"><title>Combo</title>
<polygon fill="none" stroke="black" points="215.256,-73.5 215.256,-109.5 274.256,-109.5 274.256,-73.5 215.256,-73.5"/>
<text text-anchor="middle" x="244.756" y="-87.8" font-family="Times New Roman,serif" font-size="14.00">Combo</text>
</g>
<!-- Falling&#45;&gt;Combo -->
<g id="edge15" class="edge"><title>Falling&#45;&gt;Combo</title>
<path fill="none" stroke="black" d="M48.7185,-223.444C33.3572,-214.423 15.4939,-200.831 6.75615,-183 -0.479867,-168.233 -3.5179,-158.84 6.75615,-146 31.1433,-115.522 143.81,-101.197 204.979,-95.5651"/>
<polygon fill="black" stroke="black" points="205.398,-99.0418 215.051,-94.6735 204.781,-92.0691 205.398,-99.0418"/>
</g>
<!-- StopClock&#45;&gt;Combo -->
<g id="edge16" class="edge"><title>StopClock&#45;&gt;Combo</title>
<path fill="none" stroke="black" d="M301.601,-146.313C292.204,-137.417 280.576,-126.409 270.29,-116.672"/>
<polygon fill="black" stroke="black" points="272.413,-113.862 262.744,-109.529 267.6,-118.945 272.413,-113.862"/>
</g>
<!-- ClearAnimation&#45;&gt;Combo -->
<g id="edge17" class="edge"><title>ClearAnimation&#45;&gt;Combo</title>
<path fill="none" stroke="black" d="M216.713,-146.313C221.076,-137.941 226.414,-127.697 231.258,-118.403"/>
<polygon fill="black" stroke="black" points="234.364,-120.014 235.882,-109.529 228.157,-116.779 234.364,-120.014"/>
</g>
<!-- Garbage -->
<g id="node21" class="node"><title>Garbage</title>
<polygon fill="none" stroke="black" points="382.756,-0.5 382.756,-36.5 446.756,-36.5 446.756,-0.5 382.756,-0.5"/>
<text text-anchor="middle" x="414.756" y="-14.8" font-family="Times New Roman,serif" font-size="14.00">Garbage</text>
</g>
<!-- Combo&#45;&gt;Garbage -->
<g id="edge18" class="edge"><title>Combo&#45;&gt;Garbage</title>
<path fill="none" stroke="black" d="M274.368,-78.1327C301.665,-66.7323 342.46,-49.6942 373.05,-36.9185"/>
<polygon fill="black" stroke="black" points="374.714,-40.0164 382.593,-32.9328 372.017,-33.5571 374.714,-40.0164"/>
</g>
<!-- DangerAnimation -->
<g id="node15" class="node"><title>DangerAnimation</title>
<polygon fill="none" stroke="black" points="329.256,-73.5 329.256,-109.5 446.256,-109.5 446.256,-73.5 329.256,-73.5"/>
<text text-anchor="start" x="337.256" y="-87.8" font-family="Times New Roman,serif" font-size="14.00">Danger Animation</text>
</g>
<!-- Lose&#45;&gt;DangerAnimation -->
<g id="edge19" class="edge"><title>Lose&#45;&gt;DangerAnimation</title>
<path fill="none" stroke="black" d="M413.526,-146.313C409.558,-138.028 404.713,-127.91 400.299,-118.693"/>
<polygon fill="black" stroke="black" points="403.387,-117.036 395.911,-109.529 397.073,-120.06 403.387,-117.036"/>
</g>
<!-- Replay -->
<g id="node23" class="node"><title>Replay</title>
<polygon fill="none" stroke="black" points="464.756,-73.5 464.756,-109.5 520.756,-109.5 520.756,-73.5 464.756,-73.5"/>
<text text-anchor="middle" x="492.756" y="-87.8" font-family="Times New Roman,serif" font-size="14.00">Replay</text>
</g>
<!-- Lose&#45;&gt;Replay -->
<g id="edge20" class="edge"><title>Lose&#45;&gt;Replay</title>
<path fill="none" stroke="black" d="M438.943,-146.313C447.839,-137.417 458.847,-126.409 468.584,-116.672"/>
<polygon fill="black" stroke="black" points="471.131,-119.075 475.727,-109.529 466.181,-114.125 471.131,-119.075"/>
</g>
<!-- Server -->
<g id="node16" class="node"><title>Server</title>
<polygon fill="none" stroke="black" points="559.756,-438.5 559.756,-474.5 613.756,-474.5 613.756,-438.5 559.756,-438.5"/>
<text text-anchor="middle" x="586.756" y="-452.8" font-family="Times New Roman,serif" font-size="14.00">Server</text>
</g>
<!-- Host -->
<g id="node17" class="node"><title>Host</title>
<polygon fill="none" stroke="black" points="513.756,-365.5 513.756,-401.5 567.756,-401.5 567.756,-365.5 513.756,-365.5"/>
<text text-anchor="middle" x="540.756" y="-379.8" font-family="Times New Roman,serif" font-size="14.00">Host</text>
</g>
<!-- Server&#45;&gt;Host -->
<g id="edge21" class="edge"><title>Server&#45;&gt;Host</title>
<path fill="none" stroke="black" d="M575.621,-438.313C570.14,-429.853 563.422,-419.484 557.35,-410.112"/>
<polygon fill="black" stroke="black" points="560.164,-408.018 551.789,-401.529 554.289,-411.824 560.164,-408.018"/>
</g>
<!-- Disconnected -->
<g id="node19" class="node"><title>Disconnected</title>
<polygon fill="none" stroke="black" points="586.256,-365.5 586.256,-401.5 679.256,-401.5 679.256,-365.5 586.256,-365.5"/>
<text text-anchor="middle" x="632.756" y="-379.8" font-family="Times New Roman,serif" font-size="14.00">Disconnected</text>
</g>
<!-- Server&#45;&gt;Disconnected -->
<g id="edge22" class="edge"><title>Server&#45;&gt;Disconnected</title>
<path fill="none" stroke="black" d="M597.891,-438.313C603.372,-429.853 610.091,-419.484 616.162,-410.112"/>
<polygon fill="black" stroke="black" points="619.223,-411.824 621.723,-401.529 613.349,-408.018 619.223,-411.824"/>
</g>
<!-- Join -->
<g id="node18" class="node"><title>Join</title>
<polygon fill="none" stroke="black" points="541.756,-292.5 541.756,-328.5 595.756,-328.5 595.756,-292.5 541.756,-292.5"/>
<text text-anchor="middle" x="568.756" y="-306.8" font-family="Times New Roman,serif" font-size="14.00">Join</text>
</g>
<!-- Host&#45;&gt;Join -->
<g id="edge23" class="edge"><title>Host&#45;&gt;Join</title>
<path fill="none" stroke="black" d="M547.534,-365.313C550.767,-357.115 554.708,-347.123 558.311,-337.985"/>
<polygon fill="black" stroke="black" points="561.628,-339.116 562.041,-328.529 555.116,-336.548 561.628,-339.116"/>
</g>
<!-- ShareState -->
<g id="node20" class="node"><title>ShareState</title>
<polygon fill="none" stroke="black" points="501.756,-219.5 501.756,-255.5 581.756,-255.5 581.756,-219.5 501.756,-219.5"/>
<text text-anchor="start" x="509.756" y="-233.8" font-family="Times New Roman,serif" font-size="14.00">Share State</text>
</g>
<!-- Host&#45;&gt;ShareState -->
<g id="edge24" class="edge"><title>Host&#45;&gt;ShareState</title>
<path fill="none" stroke="black" d="M537.508,-365.225C535.71,-354.781 533.661,-341.175 532.756,-329 531.537,-312.601 531.387,-308.387 532.756,-292 533.473,-283.421 534.825,-274.147 536.268,-265.769"/>
<polygon fill="black" stroke="black" points="539.743,-266.223 538.102,-255.755 532.857,-264.961 539.743,-266.223"/>
</g>
<!-- Join&#45;&gt;ShareState -->
<g id="edge25" class="edge"><title>Join&#45;&gt;ShareState</title>
<path fill="none" stroke="black" d="M562.22,-292.313C559.103,-284.115 555.303,-274.123 551.828,-264.985"/>
<polygon fill="black" stroke="black" points="555.058,-263.632 548.232,-255.529 548.515,-266.12 555.058,-263.632"/>
</g>
<!-- ShareState&#45;&gt;Garbage -->
<g id="edge26" class="edge"><title>ShareState&#45;&gt;Garbage</title>
<path fill="none" stroke="black" d="M545.703,-219.385C552.031,-187.453 560.806,-117.968 529.756,-73 512.967,-48.685 482.182,-35.161 456.686,-27.7961"/>
<polygon fill="black" stroke="black" points="457.422,-24.37 446.858,-25.1779 455.62,-31.1342 457.422,-24.37"/>
</g>
<!-- Win -->
<g id="node22" class="node"><title>Win</title>
<polygon fill="none" stroke="black" points="466.756,-146.5 466.756,-182.5 520.756,-182.5 520.756,-146.5 466.756,-146.5"/>
<text text-anchor="middle" x="493.756" y="-160.8" font-family="Times New Roman,serif" font-size="14.00">Win</text>
</g>
<!-- ShareState&#45;&gt;Win -->
<g id="edge27" class="edge"><title>ShareState&#45;&gt;Win</title>
<path fill="none" stroke="black" d="M530.137,-219.313C524.359,-210.766 517.262,-200.269 510.876,-190.823"/>
<polygon fill="black" stroke="black" points="513.769,-188.853 505.269,-182.529 507.97,-192.774 513.769,-188.853"/>
</g>
<!-- Win&#45;&gt;Replay -->
<g id="edge28" class="edge"><title>Win&#45;&gt;Replay</title>
<path fill="none" stroke="black" d="M493.514,-146.313C493.401,-138.289 493.264,-128.547 493.137,-119.569"/>
<polygon fill="black" stroke="black" points="496.637,-119.479 492.996,-109.529 489.637,-119.577 496.637,-119.479"/>
</g>
</g>
</svg>
