<?xml version="1.0" encoding="UTF-8" standalone="no"?>
<!DOCTYPE svg PUBLIC "-//W3C//DTD SVG 1.1//EN"
 "http://www.w3.org/Graphics/SVG/1.1/DTD/svg11.dtd">
<!-- Generated by graphviz version 2.38.0 (20140413.2041)
 -->
<!-- Title: %3 Pages: 1 -->
<svg width="585pt" height="191pt"
 viewBox="0.00 0.00 585.00 191.00" xmlns="http://www.w3.org/2000/svg" xmlns:xlink="http://www.w3.org/1999/xlink">
<g id="graph0" class="graph" transform="scale(1 1) rotate(0) translate(4 187)">
<title>%3</title>
<polygon fill="white" stroke="none" points="-4,4 -4,-187 581,-187 581,4 -4,4"/>
<!-- ImprovedSyntaxHighlighting -->
<g id="node1" class="node"><title>ImprovedSyntaxHighlighting</title>
<polygon fill="none" stroke="black" points="0,-146.5 0,-182.5 183,-182.5 183,-146.5 0,-146.5"/>
<text text-anchor="start" x="8" y="-160.8" font-family="Times New Roman,serif" font-size="14.00">Improved Syntax Highlighting</text>
</g>
<!-- BetterMobile -->
<g id="node2" class="node"><title>BetterMobile</title>
<polygon fill="none" stroke="black" points="45.5,-73.5 45.5,-109.5 137.5,-109.5 137.5,-73.5 45.5,-73.5"/>
<text text-anchor="start" x="53.5" y="-87.8" font-family="Times New Roman,serif" font-size="14.00">Better Mobile</text>
</g>
<!-- ImprovedSyntaxHighlighting&#45;&gt;BetterMobile -->
<g id="edge1" class="edge"><title>ImprovedSyntaxHighlighting&#45;&gt;BetterMobile</title>
<path fill="none" stroke="black" d="M91.5,-146.313C91.5,-138.289 91.5,-128.547 91.5,-119.569"/>
<polygon fill="black" stroke="black" points="95.0001,-119.529 91.5,-109.529 88.0001,-119.529 95.0001,-119.529"/>
</g>
<!-- ProjectPages -->
<g id="node3" class="node"><title>ProjectPages</title>
<polygon fill="none" stroke="gray" points="201,-146.5 201,-182.5 298,-182.5 298,-146.5 201,-146.5"/>
<text text-anchor="start" x="209" y="-168.3" font-family="Times New Roman,serif" font-size="14.00" fill="gray">Project Pages </text>
<text text-anchor="start" x="220" y="-154.3" font-family="Times New Roman,serif" font-size="14.00" fill="gray"> </text>
<text text-anchor="start" x="224" y="-154.3" font-family="Times New Roman,serif" font-style="italic" font-size="14.00" fill="gray">Complete</text>
</g>
<!-- PostTags -->
<g id="node4" class="node"><title>PostTags</title>
<polygon fill="none" stroke="black" points="212.5,-73.5 212.5,-109.5 286.5,-109.5 286.5,-73.5 212.5,-73.5"/>
<text text-anchor="start" x="220.5" y="-87.8" font-family="Times New Roman,serif" font-size="14.00">Post Tags</text>
</g>
<!-- ProjectPages&#45;&gt;PostTags -->
<g id="edge2" class="edge"><title>ProjectPages&#45;&gt;PostTags</title>
<path fill="none" stroke="black" d="M249.5,-146.313C249.5,-138.289 249.5,-128.547 249.5,-119.569"/>
<polygon fill="black" stroke="black" points="253,-119.529 249.5,-109.529 246,-119.529 253,-119.529"/>
</g>
<!-- BetterRelatedPostLists -->
<g id="node5" class="node"><title>BetterRelatedPostLists</title>
<polygon fill="none" stroke="black" points="172,-0.5 172,-36.5 327,-36.5 327,-0.5 172,-0.5"/>
<text text-anchor="start" x="180" y="-14.8" font-family="Times New Roman,serif" font-size="14.00">Better Related Post Lists</text>
</g>
<!-- PostTags&#45;&gt;BetterRelatedPostLists -->
<g id="edge3" class="edge"><title>PostTags&#45;&gt;BetterRelatedPostLists</title>
<path fill="none" stroke="black" d="M249.5,-73.3129C249.5,-65.2895 249.5,-55.5475 249.5,-46.5691"/>
<polygon fill="black" stroke="black" points="253,-46.5288 249.5,-36.5288 246,-46.5289 253,-46.5288"/>
</g>
<!-- StyleImprovements -->
<g id="node6" class="node"><title>StyleImprovements</title>
<polygon fill="none" stroke="black" points="412.5,-146.5 412.5,-182.5 540.5,-182.5 540.5,-146.5 412.5,-146.5"/>
<text text-anchor="start" x="420.5" y="-160.8" font-family="Times New Roman,serif" font-size="14.00">Style Improvements</text>
</g>
<!-- IntegrateSunsetColorSimulator -->
<g id="node7" class="node"><title>IntegrateSunsetColorSimulator</title>
<polygon fill="none" stroke="black" points="305,-73.5 305,-109.5 504,-109.5 504,-73.5 305,-73.5"/>
<text text-anchor="start" x="313" y="-87.8" font-family="Times New Roman,serif" font-size="14.00">Integrate Sunset Color Simulator</text>
</g>
<!-- StyleImprovements&#45;&gt;IntegrateSunsetColorSimulator -->
<g id="edge4" class="edge"><title>StyleImprovements&#45;&gt;IntegrateSunsetColorSimulator</title>
<path fill="none" stroke="black" d="M459.071,-146.313C450.05,-137.417 438.887,-126.409 429.012,-116.672"/>
<polygon fill="black" stroke="black" points="431.347,-114.058 421.769,-109.529 426.432,-119.042 431.347,-114.058"/>
</g>
<!-- Search -->
<g id="node8" class="node"><title>Search</title>
<polygon fill="none" stroke="black" points="522,-73.5 522,-109.5 577,-109.5 577,-73.5 522,-73.5"/>
<text text-anchor="middle" x="549.5" y="-87.8" font-family="Times New Roman,serif" font-size="14.00">Search</text>
</g>
<!-- StyleImprovements&#45;&gt;Search -->
<g id="edge5" class="edge"><title>StyleImprovements&#45;&gt;Search</title>
<path fill="none" stroke="black" d="M494.171,-146.313C503.317,-137.417 514.635,-126.409 524.647,-116.672"/>
<polygon fill="black" stroke="black" points="527.263,-119.01 531.991,-109.529 522.383,-113.992 527.263,-119.01"/>
</g>
</g>
</svg>
