<?xml version="1.0" encoding="UTF-8" standalone="no"?>
<!DOCTYPE svg PUBLIC "-//W3C//DTD SVG 1.1//EN"
 "http://www.w3.org/Graphics/SVG/1.1/DTD/svg11.dtd">
<!-- Generated by graphviz version 2.38.0 (20140413.2041)
 -->
<!-- Title: %3 Pages: 1 -->
<svg width="432pt" height="410pt"
 viewBox="0.00 0.00 431.50 410.00" xmlns="http://www.w3.org/2000/svg" xmlns:xlink="http://www.w3.org/1999/xlink">
<g id="graph0" class="graph" transform="scale(1 1) rotate(0) translate(4 406)">
<title>%3</title>
<polygon fill="white" stroke="none" points="-4,4 -4,-406 427.5,-406 427.5,4 -4,4"/>
<!-- Brainstorm -->
<g id="node1" class="node"><title>Brainstorm</title>
<polygon fill="none" stroke="gray" points="115,-365.5 115,-401.5 197,-401.5 197,-365.5 115,-365.5"/>
<text text-anchor="start" x="123" y="-387.3" font-family="Times New Roman,serif" font-size="14.00" fill="gray">Brainstorm </text>
<text text-anchor="start" x="126.5" y="-373.3" font-family="Times New Roman,serif" font-size="14.00" fill="gray"> </text>
<text text-anchor="start" x="130.5" y="-373.3" font-family="Times New Roman,serif" font-style="italic" font-size="14.00" fill="gray">Complete</text>
</g>
<!-- SpecifyFormat -->
<g id="node2" class="node"><title>SpecifyFormat</title>
<polygon fill="none" stroke="gray" points="102.5,-292.5 102.5,-328.5 209.5,-328.5 209.5,-292.5 102.5,-292.5"/>
<text text-anchor="start" x="110.5" y="-314.3" font-family="Times New Roman,serif" font-size="14.00" fill="gray">Specify Format </text>
<text text-anchor="start" x="126.5" y="-300.3" font-family="Times New Roman,serif" font-size="14.00" fill="gray"> </text>
<text text-anchor="start" x="130.5" y="-300.3" font-family="Times New Roman,serif" font-style="italic" font-size="14.00" fill="gray">Complete</text>
</g>
<!-- Brainstorm&#45;&gt;SpecifyFormat -->
<g id="edge1" class="edge"><title>Brainstorm&#45;&gt;SpecifyFormat</title>
<path fill="none" stroke="black" d="M156,-365.313C156,-357.289 156,-347.547 156,-338.569"/>
<polygon fill="black" stroke="black" points="159.5,-338.529 156,-328.529 152.5,-338.529 159.5,-338.529"/>
</g>
<!-- AbbreviationResolver -->
<g id="node3" class="node"><title>AbbreviationResolver</title>
<polygon fill="none" stroke="gray" points="11,-219.5 11,-255.5 157,-255.5 157,-219.5 11,-219.5"/>
<text text-anchor="start" x="19" y="-241.3" font-family="Times New Roman,serif" font-size="14.00" fill="gray">Abbreviation Resolver </text>
<text text-anchor="start" x="54.5" y="-227.3" font-family="Times New Roman,serif" font-size="14.00" fill="gray"> </text>
<text text-anchor="start" x="58.5" y="-227.3" font-family="Times New Roman,serif" font-style="italic" font-size="14.00" fill="gray">Complete</text>
</g>
<!-- SpecifyFormat&#45;&gt;AbbreviationResolver -->
<g id="edge2" class="edge"><title>SpecifyFormat&#45;&gt;AbbreviationResolver</title>
<path fill="none" stroke="black" d="M138.571,-292.313C129.55,-283.417 118.387,-272.409 108.512,-262.672"/>
<polygon fill="black" stroke="black" points="110.847,-260.058 101.269,-255.529 105.932,-265.042 110.847,-260.058"/>
</g>
<!-- ImplementParser -->
<g id="node5" class="node"><title>ImplementParser</title>
<polygon fill="none" stroke="gray" points="204,-219.5 204,-255.5 322,-255.5 322,-219.5 204,-219.5"/>
<text text-anchor="start" x="212" y="-241.3" font-family="Times New Roman,serif" font-size="14.00" fill="gray">Implement Parser </text>
<text text-anchor="start" x="233.5" y="-227.3" font-family="Times New Roman,serif" font-size="14.00" fill="gray"> </text>
<text text-anchor="start" x="237.5" y="-227.3" font-family="Times New Roman,serif" font-style="italic" font-size="14.00" fill="gray">Complete</text>
</g>
<!-- SpecifyFormat&#45;&gt;ImplementParser -->
<g id="edge3" class="edge"><title>SpecifyFormat&#45;&gt;ImplementParser</title>
<path fill="none" stroke="black" d="M181.629,-292.494C195.687,-283.166 213.307,-271.474 228.552,-261.358"/>
<polygon fill="black" stroke="black" points="230.812,-264.059 237.209,-255.614 226.941,-258.226 230.812,-264.059"/>
</g>
<!-- DOTGenerator -->
<g id="node4" class="node"><title>DOTGenerator</title>
<polygon fill="none" stroke="gray" points="14.5,-146.5 14.5,-182.5 123.5,-182.5 123.5,-146.5 14.5,-146.5"/>
<text text-anchor="start" x="22.5" y="-168.3" font-family="Times New Roman,serif" font-size="14.00" fill="gray">DOT Generator </text>
<text text-anchor="start" x="39.5" y="-154.3" font-family="Times New Roman,serif" font-size="14.00" fill="gray"> </text>
<text text-anchor="start" x="43.5" y="-154.3" font-family="Times New Roman,serif" font-style="italic" font-size="14.00" fill="gray">Complete</text>
</g>
<!-- AbbreviationResolver&#45;&gt;DOTGenerator -->
<g id="edge4" class="edge"><title>AbbreviationResolver&#45;&gt;DOTGenerator</title>
<path fill="none" stroke="black" d="M80.3689,-219.313C78.6738,-211.289 76.6157,-201.547 74.7188,-192.569"/>
<polygon fill="black" stroke="black" points="78.0892,-191.589 72.5976,-182.529 71.2404,-193.036 78.0892,-191.589"/>
</g>
<!-- CommandLineInterface -->
<g id="node6" class="node"><title>CommandLineInterface</title>
<polygon fill="none" stroke="gray" points="217.5,-73.5 217.5,-109.5 376.5,-109.5 376.5,-73.5 217.5,-73.5"/>
<text text-anchor="start" x="225.5" y="-95.3" font-family="Times New Roman,serif" font-size="14.00" fill="gray">Command Line Interface </text>
<text text-anchor="start" x="267.5" y="-81.3" font-family="Times New Roman,serif" font-size="14.00" fill="gray"> </text>
<text text-anchor="start" x="271.5" y="-81.3" font-family="Times New Roman,serif" font-style="italic" font-size="14.00" fill="gray">Complete</text>
</g>
<!-- DOTGenerator&#45;&gt;CommandLineInterface -->
<g id="edge5" class="edge"><title>DOTGenerator&#45;&gt;CommandLineInterface</title>
<path fill="none" stroke="black" d="M123.612,-146.494C156.226,-136.338 197.838,-123.379 232.121,-112.704"/>
<polygon fill="black" stroke="black" points="233.537,-115.929 242.044,-109.614 231.455,-109.245 233.537,-115.929"/>
</g>
<!-- Arcs -->
<g id="node7" class="node"><title>Arcs</title>
<polygon fill="none" stroke="black" points="0,-73.5 0,-109.5 54,-109.5 54,-73.5 0,-73.5"/>
<text text-anchor="middle" x="27" y="-87.8" font-family="Times New Roman,serif" font-size="14.00">Arcs</text>
</g>
<!-- DOTGenerator&#45;&gt;Arcs -->
<g id="edge6" class="edge"><title>DOTGenerator&#45;&gt;Arcs</title>
<path fill="none" stroke="black" d="M58.833,-146.313C53.8804,-137.941 47.8208,-127.697 42.3227,-118.403"/>
<polygon fill="black" stroke="black" points="45.1772,-116.354 37.0734,-109.529 39.1524,-119.918 45.1772,-116.354"/>
</g>
<!-- SideTasks -->
<g id="node9" class="node"><title>SideTasks</title>
<polygon fill="none" stroke="black" points="72.5,-73.5 72.5,-109.5 151.5,-109.5 151.5,-73.5 72.5,-73.5"/>
<text text-anchor="start" x="80.5" y="-87.8" font-family="Times New Roman,serif" font-size="14.00">Side Tasks</text>
</g>
<!-- DOTGenerator&#45;&gt;SideTasks -->
<g id="edge7" class="edge"><title>DOTGenerator&#45;&gt;SideTasks</title>
<path fill="none" stroke="black" d="M79.4091,-146.313C84.5324,-137.853 90.8128,-127.484 96.4882,-118.112"/>
<polygon fill="black" stroke="black" points="99.5001,-119.896 101.687,-109.529 93.5126,-116.269 99.5001,-119.896"/>
</g>
<!-- ImplementParser&#45;&gt;CommandLineInterface -->
<g id="edge8" class="edge"><title>ImplementParser&#45;&gt;CommandLineInterface</title>
<path fill="none" stroke="black" d="M292.976,-219.318C305.653,-210.293 319.07,-197.976 326,-183 335.721,-161.993 326.077,-136.83 315.374,-118.376"/>
<polygon fill="black" stroke="black" points="318.2,-116.292 309.947,-109.649 312.256,-119.989 318.2,-116.292"/>
</g>
<!-- TaskLinks -->
<g id="node8" class="node"><title>TaskLinks</title>
<polygon fill="none" stroke="black" points="141.5,-146.5 141.5,-182.5 220.5,-182.5 220.5,-146.5 141.5,-146.5"/>
<text text-anchor="start" x="149.5" y="-160.8" font-family="Times New Roman,serif" font-size="14.00">Task Links</text>
</g>
<!-- ImplementParser&#45;&gt;TaskLinks -->
<g id="edge9" class="edge"><title>ImplementParser&#45;&gt;TaskLinks</title>
<path fill="none" stroke="black" d="M243.15,-219.313C232.675,-210.243 219.663,-198.977 208.257,-189.1"/>
<polygon fill="black" stroke="black" points="210.518,-186.429 200.667,-182.529 205.936,-191.721 210.518,-186.429"/>
</g>
<!-- References -->
<g id="node10" class="node"><title>References</title>
<polygon fill="none" stroke="black" points="238.5,-146.5 238.5,-182.5 317.5,-182.5 317.5,-146.5 238.5,-146.5"/>
<text text-anchor="middle" x="278" y="-160.8" font-family="Times New Roman,serif" font-size="14.00">References</text>
</g>
<!-- ImplementParser&#45;&gt;References -->
<g id="edge10" class="edge"><title>ImplementParser&#45;&gt;References</title>
<path fill="none" stroke="black" d="M266.631,-219.313C268.326,-211.289 270.384,-201.547 272.281,-192.569"/>
<polygon fill="black" stroke="black" points="275.76,-193.036 274.402,-182.529 268.911,-191.589 275.76,-193.036"/>
</g>
<!-- BetterErrorHandling -->
<g id="node14" class="node"><title>BetterErrorHandling</title>
<polygon fill="none" stroke="black" points="229,-0.5 229,-36.5 365,-36.5 365,-0.5 229,-0.5"/>
<text text-anchor="start" x="237" y="-14.8" font-family="Times New Roman,serif" font-size="14.00">Better Error Handling</text>
</g>
<!-- CommandLineInterface&#45;&gt;BetterErrorHandling -->
<g id="edge11" class="edge"><title>CommandLineInterface&#45;&gt;BetterErrorHandling</title>
<path fill="none" stroke="black" d="M297,-73.3129C297,-65.2895 297,-55.5475 297,-46.5691"/>
<polygon fill="black" stroke="black" points="300.5,-46.5288 297,-36.5288 293.5,-46.5289 300.5,-46.5288"/>
</g>
<!-- SVGTranspiler -->
<g id="node11" class="node"><title>SVGTranspiler</title>
<polygon fill="none" stroke="black" points="318.5,-365.5 318.5,-401.5 423.5,-401.5 423.5,-365.5 318.5,-365.5"/>
<text text-anchor="start" x="326.5" y="-379.8" font-family="Times New Roman,serif" font-size="14.00">SVG Transpiler</text>
</g>
<!-- TaskStyles -->
<g id="node12" class="node"><title>TaskStyles</title>
<polygon fill="none" stroke="black" points="330,-292.5 330,-328.5 412,-328.5 412,-292.5 330,-292.5"/>
<text text-anchor="start" x="338" y="-306.8" font-family="Times New Roman,serif" font-size="14.00">Task Styles</text>
</g>
<!-- SVGTranspiler&#45;&gt;TaskStyles -->
<g id="edge12" class="edge"><title>SVGTranspiler&#45;&gt;TaskStyles</title>
<path fill="none" stroke="black" d="M371,-365.313C371,-357.289 371,-347.547 371,-338.569"/>
<polygon fill="black" stroke="black" points="374.5,-338.529 371,-328.529 367.5,-338.529 374.5,-338.529"/>
</g>
<!-- Themes -->
<g id="node13" class="node"><title>Themes</title>
<polygon fill="none" stroke="black" points="340.5,-219.5 340.5,-255.5 401.5,-255.5 401.5,-219.5 340.5,-219.5"/>
<text text-anchor="middle" x="371" y="-233.8" font-family="Times New Roman,serif" font-size="14.00">Themes</text>
</g>
<!-- TaskStyles&#45;&gt;Themes -->
<g id="edge13" class="edge"><title>TaskStyles&#45;&gt;Themes</title>
<path fill="none" stroke="black" d="M371,-292.313C371,-284.289 371,-274.547 371,-265.569"/>
<polygon fill="black" stroke="black" points="374.5,-265.529 371,-255.529 367.5,-265.529 374.5,-265.529"/>
</g>
</g>
</svg>
