<?xml version="1.0" encoding="utf-8"?>
<!-- Generator: Adobe Illustrator 17.1.0, SVG Export Plug-In . SVG Version: 6.00 Build 0)  -->
<!DOCTYPE svg PUBLIC "-//W3C//DTD SVG 1.1//EN" "http://www.w3.org/Graphics/SVG/1.1/DTD/svg11.dtd">
<svg version="1.1" id="Layer_1" xmlns="http://www.w3.org/2000/svg" xmlns:xlink="http://www.w3.org/1999/xlink" x="0px" y="0px"
	 viewBox="0 551.1 800 177.8" enable-background="new 0 551.1 800 177.8" xml:space="preserve">
<rect x="2.7" y="578" fill="#0071BC" width="150.8" height="150.8"/>
<path fill="#29ABE2" d="M800,712.7H99.7V551.1H800c0,0-21.5,22.4-21.5,80.8S800,712.7,800,712.7z"/>
<polygon fill="#1A1A1A" points="153.5,728.9 99.7,712.7 153.5,712.7 "/>
<polygon fill="#FFFFFF" points="0,578 80.8,653.5 0,728.9 "/>
<g>
	<path fill="#0071BC" d="M341,681.2c-5.1,1.9-15.1,4.8-26.7,4.8c-13.2,0-24-3.2-32.6-11.6c-7.5-7.3-12.1-18.9-12.1-32.3
		c0-25.9,18-45,47.1-45c10,0,18,2.2,21.8,4l-2.7,9.2c-4.6-2.2-10.5-3.8-19.4-3.8c-21.3,0-35,13.2-35,35c0,22.1,13.2,35.3,33.7,35.3
		c7.3,0,12.4-1.1,15.1-2.4v-25.9h-17.8v-9.2h28.8v41.8H341z"/>
	<path fill="#0071BC" d="M372.3,657.8l-9.2,27.5h-11.6l29.6-87.3h13.5l29.6,87.3h-12.1l-9.4-27.5H372.3z M400.8,648.9l-8.6-25.1
		c-1.9-5.7-3.2-10.8-4.6-15.9h-0.3c-1.3,5.1-2.7,10.5-4.3,15.9l-8.6,25.3h26.4V648.9z"/>
	<path fill="#0071BC" d="M510.2,646.7c-0.5-12.1-1.3-26.7-1.3-37.7h-0.3c-3,10.2-6.5,21-11,33.1l-15.4,42.3h-8.6l-14-41.5
		c-4-12.4-7.5-23.4-10-33.9h-0.3c-0.3,10.8-0.8,25.6-1.6,38.5l-2.4,37.4h-10.8l6.2-87.3h14.3l14.8,42c3.5,10.8,6.5,20.2,8.9,29.4
		h0.3c2.2-8.9,5.4-18.3,9.2-29.4l15.6-42H518l5.4,87.3h-11L510.2,646.7z"/>
	<path fill="#0071BC" d="M585.9,644.3h-33.9v31.5h37.7v9.4h-49V598h47.1v9.4h-35.8v27.5h33.9V644.3z"/>
	<path fill="#0071BC" d="M602.8,671.5c5.1,3.2,12.4,5.7,20.2,5.7c11.6,0,18.3-6.2,18.3-14.8c0-8.1-4.6-12.9-16.4-17.2
		c-14.3-5.1-22.9-12.4-22.9-24.8c0-13.5,11.3-23.7,28.3-23.7c8.9,0,15.4,2.2,19.4,4.3l-3.2,9.2c-3-1.6-8.6-4-16.4-4
		c-11.9,0-16.4,7-16.4,12.9c0,8.1,5.4,12.1,17.2,16.7c14.8,5.7,22.4,12.9,22.4,25.6c0,13.5-10,25.1-30.4,25.1
		c-8.4,0-17.5-2.4-22.4-5.7L602.8,671.5z"/>
</g>
<g>
	<path fill="#FFFFFF" d="M341,670.2c-5.1,1.9-15.1,4.8-26.7,4.8c-13.2,0-24-3.2-32.6-11.6c-7.5-7.3-12.1-18.9-12.1-32.3
		c0-25.9,18-45,47.1-45c10,0,18,2.2,21.8,4l-2.7,9.2c-4.6-2.2-10.5-3.8-19.4-3.8c-21.3,0-35,13.2-35,35c0,22.1,13.2,35.3,33.7,35.3
		c7.3,0,12.4-1.1,15.1-2.4v-26.1h-17.8v-9.2h28.8v42H341z"/>
	<path fill="#FFFFFF" d="M372.3,646.7l-9.2,27.5h-11.6l29.6-87.3h13.5l29.6,87.3h-12.1l-9.4-27.5H372.3z M400.8,637.8l-8.6-25.1
		c-1.9-5.7-3.2-10.8-4.6-15.9h-0.3c-1.3,5.1-2.7,10.5-4.3,15.9l-8.6,25.3h26.4V637.8z"/>
	<path fill="#FFFFFF" d="M510.2,636c-0.5-12.1-1.3-26.7-1.3-37.7h-0.3c-3,10.2-6.5,21-11,33.1l-15.4,42.3h-8.6l-14-41.5
		c-4-12.4-7.5-23.4-10-33.9h-0.3c-0.3,10.8-0.8,25.6-1.6,38.5l-2.4,37.4h-10.8l6.2-87.3h14.3l14.8,42c3.5,10.8,6.5,20.2,8.9,29.4
		h0.3c2.2-8.9,5.4-18.3,9.2-29.4l15.6-42H518l5.4,87.3h-11L510.2,636z"/>
	<path fill="#FFFFFF" d="M585.9,633.3h-33.9v31.5h37.7v9.4h-49v-87.3h47.1v9.4h-35.8v27.5h33.9V633.3z"/>
	<path fill="#FFFFFF" d="M602.8,660.5c5.1,3.2,12.4,5.7,20.2,5.7c11.6,0,18.3-6.2,18.3-14.8c0-8.1-4.6-12.9-16.4-17.2
		c-14.3-5.1-22.9-12.4-22.9-24.8c0-13.5,11.3-23.7,28.3-23.7c8.9,0,15.4,2.2,19.4,4.3l-3.2,9.2c-3-1.6-8.6-4-16.4-4
		c-11.9,0-16.4,7-16.4,12.9c0,8.1,5.4,12.1,17.2,16.7c14.8,5.7,22.4,12.9,22.4,25.6c0,13.5-10,25.1-30.4,25.1
		c-8.4,0-17.5-2.4-22.4-5.7L602.8,660.5z"/>
</g>
</svg>
