<?xml version="1.0" encoding="utf-8"?>
<!-- Generator: Adobe Illustrator 17.1.0, SVG Export Plug-In . SVG Version: 6.00 Build 0)  -->
<!DOCTYPE svg PUBLIC "-//W3C//DTD SVG 1.1//EN" "http://www.w3.org/Graphics/SVG/1.1/DTD/svg11.dtd">
<svg version="1.1" id="Layer_1" xmlns="http://www.w3.org/2000/svg" xmlns:xlink="http://www.w3.org/1999/xlink" x="0px" y="0px"
	 viewBox="0 551.1 800 177.8" enable-background="new 0 551.1 800 177.8" xml:space="preserve">
<rect x="646.5" y="578" fill="#0071BC" width="150.8" height="150.8"/>
<path fill="#29ABE2" d="M0,712.7h700.3V551.1H0c0,0,21.5,22.4,21.5,80.8S0,712.7,0,712.7z"/>
<polygon fill="#1A1A1A" points="646.5,728.9 700.3,712.7 646.5,712.7 "/>
<polygon fill="#FFFFFF" points="800,578 719.2,653.5 800,728.9 "/>
<g>
	<path fill="#0071BC" d="M178.9,678.2L156.8,591h11.9l10.2,44.2c2.7,10.8,4.8,21.8,6.5,30.2h0.3c1.3-8.6,4-19.1,7-30.2l11.6-43.9
		H216l10.5,44.2c2.4,10.2,4.8,20.7,6.2,29.9h0.3c1.9-9.7,4.3-19.4,7-30.2l11.6-43.9h11.6l-24.8,87.3h-11.9l-11-45.8
		c-2.7-11-4.6-19.7-5.7-28.6h-0.3c-1.6,8.6-3.5,17.2-6.7,28.6L190.4,678h-11.6V678.2z"/>
	<path fill="#0071BC" d="M348.3,633.8c0,29.9-18.3,45.8-40.4,45.8c-22.9,0-39.1-17.8-39.1-44.2c0-27.7,17.2-45.8,40.4-45.8
		C332.9,589.6,348.3,607.9,348.3,633.8z M280.7,635.2c0,18.6,10,35.3,27.7,35.3s28-16.4,28-36.1c0-17.2-9.2-35.6-27.7-35.6
		C290.1,598.8,280.7,616,280.7,635.2z"/>
	<path fill="#0071BC" d="M363.1,592.3c5.7-1.1,13.7-1.9,21.5-1.9c12.1,0,19.7,2.2,25.3,7c4.3,3.8,6.7,9.7,6.7,16.4
		c0,11.6-7.3,19.1-16.4,22.4v0.3c6.7,2.4,10.8,8.6,12.9,17.5c3,12.1,4.8,20.5,6.7,24h-11.6c-1.3-2.4-3.2-10-5.9-20.7
		c-2.7-12.1-7.3-16.4-17.5-17h-10.5V678h-11.3V592.3z M374.1,631.9h11.6c12.1,0,19.7-6.5,19.7-16.4c0-11.3-8.1-16.2-19.9-16.2
		c-5.4,0-9.4,0.5-11,1.1v31.5H374.1z"/>
	<path fill="#0071BC" d="M432.6,592.3c6.7-1.1,15.1-1.9,24-1.9c16.2,0,27.7,3.8,35.3,10.8c7.8,7,12.4,17.2,12.4,31.2
		c0,14.3-4.3,25.9-12.7,33.9c-8.1,8.1-21.5,12.7-38.5,12.7c-8.1,0-14.8-0.3-20.5-1.1V592.3z M443.9,669.4c3,0.5,7,0.5,11.3,0.5
		c24,0,37.2-13.5,37.2-36.9c0-20.5-11.6-33.7-35.3-33.7c-5.9,0-10.2,0.5-13.2,1.1V669.4z"/>
	<path fill="#0071BC" d="M517.2,664.5c5.1,3.2,12.4,5.7,20.2,5.7c11.6,0,18.3-6.2,18.3-14.8c0-8.1-4.6-12.9-16.4-17.2
		c-14.3-5.1-22.9-12.4-22.9-24.8c0-13.5,11.3-23.7,28.3-23.7c8.9,0,15.4,2.2,19.4,4.3l-3.2,9.2c-3-1.6-8.6-4-16.4-4
		c-11.9,0-16.4,7-16.4,12.9c0,8.1,5.4,12.1,17.2,16.7c14.8,5.7,22.4,12.9,22.4,25.6c0,13.5-10,25.1-30.4,25.1
		c-8.4,0-17.5-2.4-22.4-5.7L517.2,664.5z"/>
</g>
<g>
	<path fill="#FFFFFF" d="M174.8,668.8l-22.1-87.3h11.9l10.5,44.2c2.7,10.8,4.8,21.8,6.5,30.2h0.3c1.3-8.6,4-19.1,7-30.2l11.6-43.9
		h11.9l10.5,44.2c2.4,10.2,4.8,20.7,6.2,29.9h0.3c1.9-9.7,4.3-19.4,7-30.2l11.6-44.2h11.6l-24.8,87.3h-11.9l-11-45.3
		c-2.7-11-4.6-19.7-5.7-28.6h-0.3c-1.6,8.6-3.5,17.2-6.7,28.6l-12.4,45.3H174.8z"/>
	<path fill="#FFFFFF" d="M344.5,624.4c0,29.9-18.3,45.8-40.4,45.8c-22.9,0-39.1-17.8-39.1-44.2c0-27.7,17.2-45.8,40.4-45.8
		C329.2,580.2,344.5,598.5,344.5,624.4z M276.9,625.7c0,18.6,10,35.3,27.7,35.3s28-16.4,28-36.1c0-17.2-9.2-35.6-27.7-35.6
		C286.3,589.4,276.9,606.6,276.9,625.7z"/>
	<path fill="#FFFFFF" d="M359.1,582.6c5.7-1.1,13.7-1.9,21.5-1.9c12.1,0,19.7,2.2,25.3,7c4.3,3.8,6.7,9.7,6.7,16.4
		c0,11.6-7.3,19.1-16.4,22.4v0.3c6.7,2.4,10.8,8.6,12.9,17.5c3,12.1,4.8,20.5,6.7,24h-11.6c-1.3-2.4-3.2-10-5.9-20.7
		c-2.7-12.1-7.3-16.4-17.5-17h-10.5v37.7h-11.3V582.6z M370.4,622.5H382c12.1,0,19.7-6.5,19.7-16.4c0-11.3-8.1-16.2-19.9-16.2
		c-5.4,0-9.4,0.5-11,1.1v31.5H370.4z"/>
	<path fill="#FFFFFF" d="M428.8,582.6c6.7-1.1,15.1-1.9,24-1.9c16.2,0,27.7,3.8,35.3,10.8c7.8,7,12.4,17.2,12.4,31.2
		c0,14.3-4.3,25.9-12.7,33.9c-8.1,8.1-21.5,12.7-38.5,12.7c-8.1,0-14.8-0.3-20.5-1.1V582.6z M439.9,659.9c3,0.5,7,0.5,11.3,0.5
		c24,0,37.2-13.5,37.2-36.9c0-20.5-11.6-33.7-35.3-33.7c-5.9,0-10.2,0.5-13.2,1.1V659.9z"/>
	<path fill="#FFFFFF" d="M513.1,655.1c5.1,3.2,12.4,5.7,20.2,5.7c11.6,0,18.3-6.2,18.3-14.8c0-8.1-4.6-12.9-16.4-17.2
		c-14.3-5.1-22.9-12.4-22.9-24.8c0-13.5,11.3-23.7,28.3-23.7c8.9,0,15.4,2.2,19.4,4.3l-3.2,9.2c-3-1.6-8.6-4-16.4-4
		c-11.9,0-16.4,7-16.4,12.9c0,8.1,5.4,12.1,17.2,16.7c14.8,5.7,22.4,12.9,22.4,25.6c0,13.5-10,25.1-30.4,25.1
		c-8.4,0-17.5-2.4-22.4-5.7L513.1,655.1z"/>
</g>
</svg>
